<?xml version="1.0" encoding="UTF-8"?>
<svg xmlns="http://www.w3.org/2000/svg" xmlns:xlink="http://www.w3.org/1999/xlink" width="54px" height="38px" viewBox="0 0 54 38" version="1.1">
<g id="surface1">
<path style=" stroke:none;fill-rule:nonzero;fill:rgb(0%,0%,0%);fill-opacity:1;" d="M 15.261719 25.566406 C 15.261719 25.527344 15.25 25.503906 15.234375 25.511719 C 15.21875 25.523438 15.191406 25.484375 15.167969 25.433594 C 15.144531 25.375 15.109375 25.335938 15.082031 25.335938 C 15.046875 25.335938 15.042969 25.328125 15.070312 25.296875 C 15.09375 25.269531 15.09375 25.257812 15.066406 25.246094 C 15.039062 25.238281 15.039062 25.226562 15.070312 25.1875 C 15.101562 25.148438 15.105469 25.132812 15.078125 25.125 C 15.058594 25.117188 15.042969 25.101562 15.042969 25.085938 C 15.042969 25.070312 15.054688 25.066406 15.070312 25.078125 C 15.085938 25.085938 15.089844 25.074219 15.082031 25.050781 C 15.074219 25.027344 15.078125 25.007812 15.097656 25.007812 C 15.117188 25.007812 15.121094 24.992188 15.097656 24.953125 C 15.074219 24.910156 15.078125 24.898438 15.113281 24.898438 C 15.148438 24.898438 15.148438 24.890625 15.121094 24.863281 C 15.085938 24.824219 15.015625 24.859375 15.027344 24.910156 C 15.027344 24.921875 15.015625 24.9375 15 24.945312 C 14.976562 24.953125 14.972656 24.9375 14.984375 24.894531 C 14.992188 24.863281 14.988281 24.84375 14.972656 24.851562 C 14.960938 24.859375 14.925781 24.855469 14.894531 24.84375 C 14.851562 24.828125 14.863281 24.820312 14.957031 24.804688 C 15.027344 24.792969 15.070312 24.769531 15.070312 24.746094 C 15.070312 24.722656 15.09375 24.707031 15.125 24.707031 C 15.152344 24.707031 15.191406 24.683594 15.214844 24.652344 C 15.25 24.601562 15.386719 24.527344 15.433594 24.539062 C 15.445312 24.542969 15.523438 24.527344 15.609375 24.503906 C 15.695312 24.484375 15.839844 24.457031 15.933594 24.449219 C 16.023438 24.4375 16.109375 24.417969 16.117188 24.402344 C 16.125 24.390625 16.15625 24.378906 16.191406 24.378906 C 16.222656 24.378906 16.324219 24.339844 16.414062 24.296875 C 16.503906 24.253906 16.597656 24.214844 16.621094 24.214844 C 16.648438 24.214844 16.675781 24.203125 16.683594 24.1875 C 16.691406 24.171875 16.6875 24.160156 16.671875 24.160156 C 16.632812 24.160156 16.644531 24.039062 16.683594 24.035156 C 16.699219 24.035156 16.765625 24.019531 16.828125 24 C 16.894531 23.980469 16.976562 23.972656 17.015625 23.980469 C 17.050781 23.992188 17.121094 23.984375 17.167969 23.972656 C 17.214844 23.957031 17.320312 23.929688 17.402344 23.914062 C 17.632812 23.871094 17.753906 23.832031 17.753906 23.804688 C 17.753906 23.78125 16.363281 23.796875 16.019531 23.828125 C 15.839844 23.84375 15.769531 23.839844 15.695312 23.808594 C 15.640625 23.785156 15.59375 23.765625 15.585938 23.761719 C 15.578125 23.761719 15.535156 23.742188 15.492188 23.726562 C 15.449219 23.707031 15.394531 23.699219 15.371094 23.710938 C 15.347656 23.71875 14.988281 23.730469 14.570312 23.734375 C 14.152344 23.742188 13.757812 23.757812 13.6875 23.773438 C 13.621094 23.789062 13.421875 23.816406 13.242188 23.832031 C 13.0625 23.851562 12.894531 23.875 12.867188 23.890625 C 12.835938 23.90625 12.753906 23.914062 12.679688 23.90625 C 12.609375 23.898438 12.542969 23.90625 12.535156 23.917969 C 12.527344 23.929688 12.507812 23.933594 12.496094 23.925781 C 12.480469 23.917969 12.46875 23.921875 12.46875 23.941406 C 12.46875 23.957031 12.460938 23.964844 12.449219 23.964844 C 12.402344 23.949219 12.171875 24 12.171875 24.023438 C 12.171875 24.050781 11.964844 24.09375 11.890625 24.082031 C 11.859375 24.082031 11.816406 24.101562 11.785156 24.132812 C 11.757812 24.164062 11.714844 24.1875 11.6875 24.191406 C 11.664062 24.191406 11.570312 24.195312 11.480469 24.199219 C 11.390625 24.203125 11.269531 24.21875 11.210938 24.238281 C 11.148438 24.253906 11.054688 24.277344 11 24.285156 C 10.941406 24.292969 10.902344 24.308594 10.910156 24.324219 C 10.9375 24.363281 10.875 24.375 10.40625 24.414062 C 10.378906 24.417969 10.363281 24.429688 10.363281 24.445312 C 10.367188 24.457031 10.34375 24.476562 10.316406 24.484375 C 10.285156 24.496094 10.230469 24.523438 10.191406 24.550781 C 10.144531 24.582031 10.039062 24.601562 9.828125 24.613281 C 9.664062 24.625 9.5 24.628906 9.464844 24.628906 C 9.433594 24.625 9.367188 24.644531 9.320312 24.667969 C 9.273438 24.695312 9.230469 24.703125 9.21875 24.6875 C 9.195312 24.652344 9.101562 24.617188 9.121094 24.652344 C 9.144531 24.6875 9.117188 24.6875 9.046875 24.648438 C 8.898438 24.566406 8.210938 24.628906 8.140625 24.726562 C 8.117188 24.757812 8.113281 24.777344 8.132812 24.785156 C 8.148438 24.789062 8.160156 24.804688 8.160156 24.816406 C 8.160156 24.832031 8.144531 24.835938 8.121094 24.828125 C 8.101562 24.820312 8.078125 24.824219 8.066406 24.84375 C 8.039062 24.886719 8.203125 24.878906 8.289062 24.832031 C 8.332031 24.8125 8.417969 24.785156 8.484375 24.777344 C 8.550781 24.765625 8.628906 24.75 8.65625 24.746094 C 8.679688 24.742188 8.703125 24.753906 8.703125 24.773438 C 8.703125 24.796875 8.734375 24.804688 8.816406 24.800781 C 8.90625 24.792969 8.921875 24.796875 8.882812 24.820312 C 8.859375 24.835938 8.84375 24.855469 8.851562 24.871094 C 8.867188 24.894531 8.714844 24.921875 8.421875 24.945312 C 8.257812 24.957031 8.203125 24.953125 8.183594 24.921875 C 8.167969 24.894531 8.160156 24.894531 8.160156 24.917969 C 8.160156 24.96875 7.996094 24.960938 7.9375 24.90625 C 7.910156 24.882812 7.890625 24.875 7.890625 24.886719 C 7.890625 24.90625 7.800781 24.90625 7.664062 24.894531 C 7.542969 24.886719 7.351562 24.871094 7.238281 24.863281 C 7.125 24.855469 6.996094 24.832031 6.945312 24.816406 C 6.898438 24.796875 6.828125 24.789062 6.789062 24.796875 C 6.753906 24.804688 6.714844 24.796875 6.707031 24.78125 C 6.695312 24.765625 6.703125 24.761719 6.722656 24.777344 C 6.746094 24.789062 6.753906 24.785156 6.742188 24.769531 C 6.722656 24.734375 6.59375 24.707031 6.4375 24.699219 C 6.347656 24.695312 6.332031 24.683594 6.328125 24.632812 C 6.324219 24.582031 6.34375 24.574219 6.503906 24.554688 C 6.601562 24.542969 6.714844 24.535156 6.75 24.539062 L 6.820312 24.546875 L 6.746094 24.507812 C 6.621094 24.4375 6.5 24.410156 6.261719 24.390625 C 6.136719 24.382812 5.953125 24.355469 5.855469 24.328125 C 5.632812 24.273438 4.859375 24.269531 4.828125 24.324219 C 4.816406 24.34375 4.792969 24.347656 4.773438 24.339844 C 4.726562 24.308594 4.230469 24.300781 4.246094 24.328125 C 4.261719 24.355469 4.257812 24.355469 3.902344 24.367188 C 3.652344 24.375 3.546875 24.382812 3.171875 24.429688 C 3.003906 24.453125 2.902344 24.441406 2.804688 24.382812 C 2.765625 24.363281 2.773438 24.347656 2.871094 24.285156 C 2.949219 24.234375 3.046875 24.207031 3.195312 24.1875 C 3.445312 24.15625 3.683594 24.113281 3.855469 24.074219 C 3.957031 24.050781 3.976562 24.039062 3.96875 23.996094 C 3.960938 23.964844 3.9375 23.949219 3.917969 23.960938 C 3.894531 23.96875 3.878906 23.960938 3.878906 23.945312 C 3.878906 23.925781 3.898438 23.914062 3.925781 23.914062 C 3.964844 23.914062 3.96875 23.910156 3.933594 23.886719 C 3.90625 23.871094 3.902344 23.859375 3.925781 23.859375 C 3.941406 23.859375 3.949219 23.839844 3.941406 23.816406 C 3.929688 23.789062 3.957031 23.761719 4.03125 23.730469 L 4.136719 23.683594 L 3.871094 23.667969 C 3.726562 23.65625 3.53125 23.652344 3.445312 23.652344 C 3.355469 23.65625 3.28125 23.652344 3.28125 23.652344 C 3.28125 23.648438 3.304688 23.621094 3.335938 23.585938 C 3.367188 23.550781 3.390625 23.53125 3.390625 23.542969 C 3.390625 23.550781 3.417969 23.542969 3.453125 23.519531 C 3.484375 23.496094 3.601562 23.464844 3.714844 23.449219 C 3.824219 23.429688 3.960938 23.398438 4.019531 23.378906 C 4.082031 23.355469 4.171875 23.339844 4.226562 23.339844 C 4.378906 23.335938 4.757812 23.238281 4.648438 23.226562 C 4.632812 23.226562 4.597656 23.21875 4.570312 23.214844 C 4.539062 23.207031 4.5 23.199219 4.480469 23.195312 C 4.417969 23.179688 4.414062 23.152344 4.472656 23.132812 C 4.503906 23.125 4.5625 23.085938 4.601562 23.050781 C 4.640625 23.015625 4.699219 22.984375 4.734375 22.984375 C 4.765625 22.984375 4.808594 22.96875 4.824219 22.945312 C 4.847656 22.914062 4.828125 22.90625 4.699219 22.890625 C 4.613281 22.882812 4.503906 22.867188 4.460938 22.859375 C 4.355469 22.84375 3.929688 22.84375 3.902344 22.863281 C 3.863281 22.886719 3.554688 22.898438 3.554688 22.875 C 3.554688 22.863281 3.570312 22.839844 3.59375 22.820312 C 3.617188 22.800781 3.632812 22.773438 3.632812 22.757812 C 3.632812 22.742188 3.625 22.738281 3.617188 22.746094 C 3.605469 22.757812 3.582031 22.75 3.5625 22.734375 C 3.542969 22.71875 3.527344 22.714844 3.527344 22.730469 C 3.527344 22.746094 3.507812 22.757812 3.484375 22.757812 C 3.421875 22.757812 3.4375 22.726562 3.527344 22.6875 C 3.628906 22.640625 3.613281 22.621094 3.453125 22.585938 C 3.304688 22.554688 3.273438 22.503906 3.382812 22.460938 C 3.492188 22.417969 4.007812 22.359375 4.300781 22.355469 C 4.441406 22.355469 4.585938 22.347656 4.625 22.339844 L 4.695312 22.320312 L 4.621094 22.257812 C 4.578125 22.222656 4.519531 22.191406 4.496094 22.191406 C 4.433594 22.191406 4.414062 22.148438 4.445312 22.082031 C 4.484375 22.011719 4.71875 21.890625 4.8125 21.890625 C 4.855469 21.890625 4.875 21.878906 4.867188 21.863281 C 4.859375 21.847656 4.828125 21.835938 4.800781 21.835938 C 4.753906 21.835938 4.703125 21.765625 4.714844 21.71875 C 4.722656 21.671875 4.292969 21.726562 4.257812 21.777344 C 4.230469 21.816406 3.539062 21.921875 3.46875 21.894531 L 3.40625 21.871094 L 3.46875 21.835938 C 3.503906 21.816406 3.730469 21.769531 3.96875 21.730469 C 4.410156 21.65625 4.515625 21.601562 4.226562 21.601562 C 4.140625 21.601562 4.058594 21.585938 4.03125 21.566406 C 3.992188 21.535156 3.941406 21.53125 3.722656 21.558594 C 3.316406 21.609375 3.082031 21.644531 3.027344 21.660156 C 2.992188 21.671875 2.980469 21.664062 2.988281 21.628906 C 2.996094 21.582031 3.082031 21.527344 3.214844 21.476562 C 3.328125 21.4375 3.257812 21.402344 3.109375 21.425781 C 3.046875 21.4375 2.941406 21.453125 2.875 21.464844 L 2.753906 21.484375 L 2.855469 21.386719 C 2.910156 21.332031 2.957031 21.28125 2.957031 21.277344 C 2.957031 21.273438 2.882812 21.257812 2.789062 21.25 C 2.570312 21.222656 2.453125 21.160156 2.453125 21.070312 C 2.457031 21.023438 2.628906 20.960938 2.792969 20.949219 C 2.859375 20.945312 3.011719 20.921875 3.132812 20.898438 C 3.253906 20.871094 3.433594 20.847656 3.539062 20.839844 C 3.644531 20.835938 3.800781 20.816406 3.890625 20.800781 C 4.445312 20.703125 4.570312 20.675781 4.597656 20.664062 C 4.609375 20.65625 4.566406 20.632812 4.5 20.617188 C 4.433594 20.601562 4.378906 20.570312 4.378906 20.550781 C 4.378906 20.507812 4.652344 20.40625 4.902344 20.363281 C 5.019531 20.339844 5.109375 20.308594 5.140625 20.273438 C 5.164062 20.246094 5.257812 20.207031 5.347656 20.191406 C 5.550781 20.152344 5.542969 20.113281 5.324219 20.03125 C 5.277344 20.011719 5.242188 19.984375 5.25 19.964844 C 5.265625 19.925781 5.390625 19.867188 5.457031 19.867188 C 5.484375 19.867188 5.5 19.851562 5.492188 19.839844 C 5.480469 19.824219 5.382812 19.8125 5.273438 19.8125 C 5.089844 19.8125 5.015625 19.78125 5.105469 19.746094 C 5.183594 19.714844 4.789062 19.730469 4.59375 19.769531 C 4.347656 19.816406 4.21875 19.796875 4.21875 19.714844 C 4.21875 19.675781 4.289062 19.628906 4.484375 19.527344 C 4.667969 19.433594 4.738281 19.386719 4.714844 19.371094 C 4.667969 19.339844 4.710938 19.308594 4.894531 19.246094 C 5.152344 19.160156 5.355469 19.019531 5.328125 18.941406 C 5.308594 18.890625 5.410156 18.859375 5.824219 18.800781 C 6.027344 18.769531 6.234375 18.726562 6.28125 18.703125 C 6.324219 18.679688 6.421875 18.65625 6.496094 18.644531 C 6.699219 18.621094 7.082031 18.523438 7.144531 18.480469 C 7.171875 18.460938 7.234375 18.441406 7.277344 18.441406 C 7.324219 18.441406 7.386719 18.429688 7.414062 18.417969 C 7.457031 18.398438 7.445312 18.390625 7.359375 18.386719 C 7.128906 18.378906 7.007812 18.355469 6.976562 18.316406 C 6.957031 18.289062 6.921875 18.28125 6.882812 18.292969 C 6.828125 18.308594 6.824219 18.304688 6.867188 18.277344 C 6.894531 18.261719 6.9375 18.253906 6.960938 18.257812 C 6.988281 18.261719 7.023438 18.253906 7.042969 18.242188 C 7.066406 18.226562 7.109375 18.234375 7.148438 18.253906 C 7.199219 18.28125 7.226562 18.285156 7.265625 18.257812 C 7.296875 18.238281 7.324219 18.234375 7.332031 18.253906 C 7.34375 18.265625 7.417969 18.28125 7.503906 18.28125 C 7.589844 18.28125 7.6875 18.300781 7.726562 18.320312 C 7.808594 18.367188 7.835938 18.371094 7.835938 18.335938 C 7.835938 18.320312 7.816406 18.308594 7.792969 18.308594 C 7.769531 18.308594 7.757812 18.296875 7.765625 18.28125 C 7.773438 18.269531 7.753906 18.25 7.722656 18.242188 C 7.691406 18.234375 7.671875 18.210938 7.679688 18.191406 C 7.691406 18.15625 7.8125 18.132812 8.1875 18.101562 C 8.527344 18.074219 8.621094 18.058594 8.621094 18.03125 C 8.621094 18.015625 8.601562 18.003906 8.582031 18.003906 C 8.558594 18.003906 8.539062 17.980469 8.539062 17.949219 C 8.539062 17.910156 8.558594 17.894531 8.605469 17.894531 C 8.683594 17.894531 8.699219 17.855469 8.625 17.835938 C 8.601562 17.828125 8.460938 17.828125 8.320312 17.835938 C 7.910156 17.859375 7.746094 17.851562 7.660156 17.804688 C 7.617188 17.78125 7.574219 17.765625 7.5625 17.773438 C 7.554688 17.777344 7.550781 17.75 7.558594 17.707031 C 7.570312 17.613281 7.53125 17.601562 7.253906 17.59375 C 7.089844 17.589844 7.074219 17.582031 7.132812 17.554688 C 7.230469 17.503906 7.578125 17.433594 7.785156 17.421875 C 7.890625 17.414062 7.992188 17.390625 8.03125 17.367188 C 8.105469 17.3125 8.152344 17.308594 8.203125 17.363281 C 8.226562 17.386719 8.292969 17.402344 8.359375 17.402344 C 8.558594 17.402344 9.308594 17.324219 9.410156 17.296875 C 9.503906 17.265625 9.507812 17.261719 9.488281 17.171875 C 9.476562 17.117188 9.480469 17.070312 9.496094 17.050781 C 9.515625 17.03125 9.515625 17.011719 9.492188 16.984375 C 9.429688 16.90625 9.511719 16.890625 9.90625 16.90625 C 10.214844 16.914062 10.308594 16.910156 10.371094 16.875 C 10.4375 16.84375 10.734375 16.796875 10.9375 16.789062 C 10.96875 16.785156 11.054688 16.773438 11.128906 16.761719 L 11.261719 16.738281 L 11.140625 16.714844 C 11.074219 16.707031 10.875 16.703125 10.695312 16.710938 C 10.515625 16.71875 10.257812 16.722656 10.125 16.722656 C 9.992188 16.71875 9.730469 16.738281 9.542969 16.761719 C 9.171875 16.808594 8.792969 16.84375 8.628906 16.84375 C 8.574219 16.84375 8.519531 16.851562 8.507812 16.867188 C 8.5 16.878906 8.453125 16.890625 8.40625 16.894531 C 8.359375 16.894531 8.324219 16.90625 8.324219 16.921875 C 8.324219 16.933594 8.296875 16.933594 8.261719 16.925781 C 8.214844 16.910156 8.210938 16.914062 8.242188 16.9375 C 8.277344 16.960938 8.277344 16.964844 8.234375 16.964844 C 8.207031 16.964844 8.1875 16.980469 8.1875 16.996094 C 8.1875 17.015625 8.160156 17.011719 8.121094 16.984375 C 8.046875 16.933594 8.015625 16.925781 8.035156 16.964844 C 8.042969 16.976562 8.027344 16.992188 7.996094 17 C 7.964844 17.011719 7.945312 17.003906 7.945312 16.984375 C 7.945312 16.964844 7.902344 16.953125 7.839844 16.953125 C 7.777344 16.953125 7.742188 16.964844 7.746094 16.984375 C 7.75 17.007812 7.722656 17.015625 7.652344 17.003906 C 7.539062 16.992188 7.429688 16.925781 7.429688 16.875 C 7.429688 16.855469 7.417969 16.859375 7.402344 16.882812 C 7.382812 16.917969 7.375 16.90625 7.375 16.847656 C 7.375 16.75 7.417969 16.664062 7.472656 16.664062 C 7.496094 16.664062 7.503906 16.652344 7.496094 16.636719 C 7.488281 16.625 7.5 16.609375 7.527344 16.609375 C 7.617188 16.605469 7.675781 16.589844 7.734375 16.546875 C 7.789062 16.511719 7.917969 16.527344 7.917969 16.566406 C 7.917969 16.574219 7.898438 16.574219 7.878906 16.566406 C 7.859375 16.558594 7.828125 16.574219 7.804688 16.601562 C 7.773438 16.640625 7.773438 16.644531 7.804688 16.625 C 7.835938 16.605469 7.839844 16.613281 7.824219 16.652344 C 7.8125 16.683594 7.820312 16.710938 7.839844 16.722656 C 7.894531 16.757812 7.9375 16.75 7.890625 16.71875 C 7.859375 16.695312 7.875 16.691406 7.953125 16.703125 C 8.011719 16.710938 8.078125 16.703125 8.105469 16.6875 C 8.144531 16.664062 8.164062 16.664062 8.195312 16.6875 C 8.226562 16.714844 8.238281 16.710938 8.257812 16.671875 C 8.269531 16.644531 8.273438 16.617188 8.273438 16.605469 C 8.269531 16.59375 8.285156 16.582031 8.308594 16.582031 C 8.328125 16.582031 8.351562 16.570312 8.355469 16.550781 C 8.363281 16.535156 8.402344 16.515625 8.445312 16.511719 C 8.488281 16.507812 8.539062 16.484375 8.554688 16.460938 C 8.570312 16.4375 8.59375 16.429688 8.609375 16.441406 C 8.621094 16.453125 8.621094 16.4375 8.613281 16.414062 C 8.589844 16.355469 8.644531 16.347656 8.664062 16.40625 C 8.679688 16.445312 8.6875 16.445312 8.734375 16.402344 C 8.78125 16.359375 8.785156 16.359375 8.785156 16.410156 C 8.785156 16.453125 8.789062 16.453125 8.8125 16.417969 C 8.851562 16.359375 8.84375 16.34375 8.773438 16.328125 C 8.726562 16.316406 8.707031 16.292969 8.710938 16.253906 C 8.714844 16.1875 8.808594 16.140625 8.917969 16.148438 C 9.019531 16.152344 9.109375 16.117188 9.109375 16.070312 C 9.109375 16.042969 9.136719 16.035156 9.210938 16.039062 C 9.320312 16.046875 9.503906 16.015625 9.570312 15.980469 C 9.601562 15.960938 9.601562 15.957031 9.554688 15.953125 C 9.527344 15.953125 9.441406 15.945312 9.367188 15.9375 C 9.136719 15.917969 8.828125 15.917969 8.71875 15.941406 C 8.644531 15.957031 8.617188 15.953125 8.632812 15.929688 C 8.644531 15.910156 8.636719 15.90625 8.613281 15.914062 C 8.589844 15.921875 8.554688 15.898438 8.527344 15.855469 C 8.492188 15.800781 8.488281 15.777344 8.511719 15.769531 C 8.53125 15.761719 8.527344 15.746094 8.492188 15.71875 C 8.449219 15.683594 8.453125 15.679688 8.527344 15.695312 C 8.570312 15.703125 8.59375 15.703125 8.574219 15.691406 C 8.503906 15.660156 8.542969 15.625 8.648438 15.625 C 8.714844 15.625 8.757812 15.640625 8.757812 15.660156 C 8.757812 15.683594 8.761719 15.683594 8.78125 15.65625 C 8.796875 15.632812 8.808594 15.628906 8.820312 15.648438 C 8.839844 15.679688 8.875 15.675781 8.957031 15.640625 C 8.988281 15.625 9.050781 15.617188 9.101562 15.613281 C 9.210938 15.613281 9.25 15.542969 9.136719 15.542969 C 9.09375 15.542969 9.054688 15.527344 9.042969 15.503906 C 9.035156 15.476562 9.046875 15.460938 9.082031 15.460938 C 9.109375 15.460938 9.144531 15.445312 9.15625 15.429688 C 9.1875 15.378906 9.296875 15.320312 9.324219 15.339844 C 9.339844 15.347656 9.355469 15.339844 9.367188 15.324219 C 9.375 15.308594 9.417969 15.296875 9.457031 15.296875 C 9.5 15.296875 9.597656 15.277344 9.679688 15.253906 C 9.808594 15.214844 9.820312 15.207031 9.765625 15.1875 C 9.734375 15.171875 9.507812 15.164062 9.265625 15.167969 C 9.019531 15.167969 8.804688 15.160156 8.785156 15.148438 C 8.765625 15.136719 8.742188 15.140625 8.730469 15.15625 C 8.710938 15.191406 7.867188 15.21875 7.847656 15.183594 C 7.839844 15.171875 7.8125 15.171875 7.792969 15.179688 C 7.761719 15.191406 7.757812 15.203125 7.78125 15.214844 C 7.796875 15.226562 7.773438 15.234375 7.726562 15.234375 C 7.683594 15.234375 7.644531 15.222656 7.644531 15.207031 C 7.644531 15.195312 7.625 15.199219 7.605469 15.214844 C 7.582031 15.234375 7.554688 15.242188 7.542969 15.230469 C 7.53125 15.222656 7.554688 15.1875 7.589844 15.160156 L 7.660156 15.109375 L 7.589844 15.121094 C 7.53125 15.132812 7.53125 15.132812 7.578125 15.109375 C 7.65625 15.070312 7.785156 15.074219 7.859375 15.117188 C 7.933594 15.160156 8.023438 15.144531 8.023438 15.09375 C 8.023438 15.070312 8.078125 15.058594 8.199219 15.058594 C 8.3125 15.058594 8.378906 15.066406 8.378906 15.085938 C 8.378906 15.101562 8.390625 15.097656 8.410156 15.070312 C 8.433594 15.039062 8.507812 15.023438 8.675781 15.007812 C 8.800781 15 8.984375 14.976562 9.078125 14.953125 C 9.171875 14.933594 9.285156 14.914062 9.335938 14.914062 C 9.382812 14.910156 9.480469 14.894531 9.554688 14.871094 C 9.683594 14.835938 9.667969 14.835938 9.324219 14.851562 C 9.125 14.859375 8.941406 14.863281 8.917969 14.867188 C 8.898438 14.867188 8.617188 14.894531 8.296875 14.929688 C 7.976562 14.964844 7.625 14.996094 7.519531 15.003906 C 7.414062 15.007812 7.332031 15.019531 7.339844 15.03125 C 7.34375 15.042969 7.296875 15.050781 7.234375 15.050781 C 7.167969 15.050781 7.007812 15.070312 6.871094 15.089844 C 6.644531 15.128906 6.101562 15.167969 6.175781 15.140625 C 6.195312 15.132812 6.203125 15.117188 6.195312 15.105469 C 6.183594 15.089844 6.210938 15.078125 6.253906 15.078125 C 6.296875 15.078125 6.375 15.054688 6.425781 15.023438 C 6.476562 14.996094 6.546875 14.960938 6.574219 14.945312 C 6.671875 14.902344 8.269531 14.632812 8.648438 14.601562 C 8.761719 14.589844 9.082031 14.558594 9.367188 14.527344 C 9.648438 14.5 10.023438 14.460938 10.195312 14.449219 C 10.371094 14.433594 10.570312 14.402344 10.644531 14.382812 C 10.738281 14.351562 10.777344 14.351562 10.792969 14.371094 C 10.808594 14.402344 11.09375 14.394531 11.441406 14.355469 C 11.492188 14.351562 11.65625 14.335938 11.804688 14.328125 C 12.074219 14.3125 12.480469 14.253906 12.707031 14.203125 C 12.773438 14.1875 12.835938 14.183594 12.851562 14.191406 C 12.863281 14.199219 13.054688 14.179688 13.269531 14.148438 C 13.589844 14.097656 13.675781 14.09375 13.726562 14.121094 C 13.777344 14.148438 13.84375 14.144531 14.085938 14.09375 C 14.488281 14.015625 15.011719 13.910156 15.273438 13.859375 C 15.394531 13.835938 15.566406 13.800781 15.660156 13.777344 C 15.753906 13.757812 15.867188 13.738281 15.917969 13.738281 C 15.964844 13.738281 16.0625 13.722656 16.128906 13.699219 C 16.242188 13.664062 16.472656 13.621094 17.089844 13.53125 C 17.40625 13.484375 17.472656 13.472656 17.796875 13.410156 C 17.945312 13.382812 18.1875 13.339844 18.335938 13.316406 C 18.484375 13.289062 18.644531 13.261719 18.6875 13.257812 C 19.007812 13.203125 19.066406 13.203125 19.128906 13.261719 C 19.164062 13.296875 19.191406 13.335938 19.191406 13.351562 C 19.191406 13.371094 19.199219 13.382812 19.210938 13.378906 C 19.222656 13.378906 19.257812 13.378906 19.292969 13.378906 C 19.34375 13.382812 19.351562 13.390625 19.328125 13.433594 C 19.296875 13.496094 19.320312 13.53125 19.371094 13.488281 C 19.425781 13.441406 19.414062 13.484375 19.351562 13.558594 C 19.316406 13.597656 19.25 13.632812 19.1875 13.644531 C 19.09375 13.660156 19.085938 13.667969 19.113281 13.703125 C 19.15625 13.757812 19.121094 13.761719 20.859375 13.546875 C 20.976562 13.535156 21.191406 13.515625 21.332031 13.507812 C 21.472656 13.5 21.730469 13.480469 21.902344 13.464844 C 22.074219 13.449219 22.296875 13.433594 22.402344 13.425781 C 22.507812 13.421875 22.640625 13.402344 22.699219 13.386719 C 22.757812 13.371094 22.992188 13.359375 23.21875 13.359375 C 23.445312 13.355469 23.648438 13.351562 23.667969 13.34375 C 23.714844 13.328125 24.351562 13.292969 24.503906 13.300781 C 24.570312 13.300781 24.640625 13.320312 24.664062 13.34375 C 24.714844 13.390625 24.847656 13.394531 25.453125 13.371094 C 25.730469 13.359375 25.984375 13.335938 26.070312 13.3125 C 26.179688 13.28125 26.359375 13.273438 26.839844 13.277344 C 27.1875 13.277344 27.761719 13.269531 28.121094 13.261719 C 28.847656 13.238281 28.808594 13.238281 29.558594 13.269531 C 30.042969 13.289062 30.324219 13.292969 30.75 13.273438 C 30.824219 13.269531 30.863281 13.261719 30.839844 13.253906 C 30.8125 13.25 30.789062 13.230469 30.789062 13.214844 C 30.789062 13.195312 30.867188 13.191406 31.015625 13.203125 C 31.136719 13.210938 31.507812 13.230469 31.835938 13.246094 C 32.160156 13.261719 32.582031 13.285156 32.769531 13.300781 C 33.519531 13.363281 33.804688 13.382812 34.191406 13.410156 C 35.164062 13.472656 35.675781 13.496094 36.210938 13.507812 C 36.457031 13.511719 36.761719 13.523438 36.886719 13.535156 C 37.015625 13.546875 37.203125 13.554688 37.308594 13.550781 C 37.414062 13.550781 37.621094 13.5625 37.769531 13.578125 C 37.917969 13.589844 38.402344 13.609375 38.84375 13.613281 C 39.28125 13.621094 39.699219 13.640625 39.761719 13.652344 C 39.828125 13.667969 39.980469 13.6875 40.097656 13.695312 C 40.214844 13.703125 40.347656 13.714844 40.394531 13.722656 C 40.554688 13.75 40.804688 13.769531 41.171875 13.78125 C 41.492188 13.789062 41.804688 13.8125 42.269531 13.863281 C 42.34375 13.871094 42.445312 13.882812 42.5 13.886719 C 42.550781 13.890625 42.683594 13.902344 42.796875 13.910156 C 42.910156 13.921875 43.097656 13.9375 43.21875 13.945312 C 43.335938 13.957031 43.441406 13.964844 43.449219 13.972656 C 43.453125 13.976562 43.53125 13.988281 43.613281 13.996094 C 43.699219 14.003906 43.785156 14.019531 43.808594 14.027344 C 43.832031 14.035156 43.957031 14.046875 44.089844 14.050781 C 44.449219 14.0625 44.449219 14.0625 44.449219 14.109375 C 44.449219 14.128906 44.464844 14.148438 44.480469 14.148438 C 44.496094 14.148438 44.5 14.132812 44.488281 14.117188 C 44.472656 14.09375 44.484375 14.089844 44.515625 14.101562 C 44.542969 14.113281 44.589844 14.121094 44.621094 14.121094 C 44.664062 14.121094 44.683594 14.140625 44.6875 14.175781 C 44.691406 14.242188 44.675781 14.246094 44.621094 14.191406 C 44.566406 14.132812 44.503906 14.136719 44.519531 14.195312 C 44.53125 14.226562 44.527344 14.234375 44.511719 14.214844 C 44.496094 14.195312 44.421875 14.191406 44.273438 14.203125 C 44.019531 14.222656 43.828125 14.21875 43.472656 14.175781 C 43.332031 14.160156 43.148438 14.140625 43.066406 14.132812 C 42.984375 14.125 42.90625 14.113281 42.886719 14.109375 C 42.871094 14.101562 42.847656 14.117188 42.839844 14.140625 C 42.828125 14.171875 42.800781 14.175781 42.742188 14.164062 C 42.644531 14.140625 42.582031 14.132812 42.324219 14.109375 C 42.21875 14.097656 42.125 14.085938 42.117188 14.078125 C 42.097656 14.066406 41.734375 14.066406 41.238281 14.074219 C 40.921875 14.082031 40.703125 14.0625 40.535156 14.023438 C 40.441406 14.003906 39.789062 13.992188 39.789062 14.015625 C 39.789062 14.023438 39.871094 14.042969 39.972656 14.054688 C 40.070312 14.0625 40.179688 14.078125 40.207031 14.082031 C 40.417969 14.125 40.976562 14.171875 41.429688 14.183594 C 41.53125 14.1875 41.628906 14.199219 41.648438 14.210938 C 41.671875 14.226562 42.503906 14.292969 42.546875 14.28125 C 42.558594 14.277344 42.65625 14.285156 42.769531 14.292969 C 42.941406 14.3125 43.382812 14.34375 43.496094 14.347656 C 43.535156 14.351562 43.539062 14.386719 43.503906 14.410156 C 43.476562 14.425781 43.273438 14.429688 43.085938 14.414062 C 43.03125 14.414062 42.976562 14.394531 42.960938 14.371094 C 42.945312 14.347656 42.898438 14.339844 42.78125 14.355469 C 42.691406 14.367188 42.613281 14.378906 42.601562 14.386719 C 42.59375 14.390625 42.566406 14.378906 42.542969 14.355469 C 42.519531 14.332031 42.496094 14.324219 42.488281 14.335938 C 42.472656 14.359375 41.925781 14.351562 41.765625 14.320312 C 41.714844 14.3125 41.621094 14.300781 41.5625 14.300781 C 41.503906 14.296875 41.425781 14.28125 41.394531 14.261719 C 41.34375 14.234375 41.332031 14.238281 41.332031 14.265625 C 41.332031 14.289062 41.296875 14.304688 41.246094 14.308594 C 41.03125 14.328125 40.730469 14.324219 40.492188 14.304688 C 40.320312 14.289062 40.25 14.292969 40.277344 14.3125 C 40.382812 14.382812 40.183594 14.417969 39.871094 14.382812 C 39.59375 14.351562 39.542969 14.347656 39.425781 14.367188 C 39.363281 14.378906 39.277344 14.375 39.230469 14.363281 C 39.117188 14.332031 38.511719 14.277344 38.242188 14.273438 C 38.117188 14.269531 37.933594 14.261719 37.835938 14.25 C 37.742188 14.238281 37.546875 14.226562 37.402344 14.21875 C 37.261719 14.210938 36.925781 14.183594 36.660156 14.164062 C 36.390625 14.140625 35.992188 14.113281 35.769531 14.105469 C 35.414062 14.089844 35.371094 14.089844 35.355469 14.132812 C 35.339844 14.171875 35.292969 14.175781 35.035156 14.175781 C 34.871094 14.175781 34.679688 14.183594 34.613281 14.195312 L 34.488281 14.21875 L 34.691406 14.25 C 34.804688 14.265625 34.9375 14.28125 34.992188 14.28125 C 35.042969 14.277344 35.257812 14.296875 35.464844 14.320312 C 35.675781 14.34375 36.070312 14.378906 36.347656 14.394531 C 36.621094 14.410156 36.875 14.429688 36.910156 14.4375 C 36.941406 14.445312 37.214844 14.460938 37.519531 14.476562 C 38.0625 14.503906 38.441406 14.523438 38.730469 14.546875 C 38.8125 14.550781 39.09375 14.570312 39.355469 14.585938 C 39.617188 14.597656 39.851562 14.617188 39.871094 14.625 C 39.894531 14.628906 39.933594 14.644531 39.964844 14.65625 C 39.996094 14.667969 40.066406 14.679688 40.125 14.683594 C 40.179688 14.6875 40.242188 14.710938 40.257812 14.734375 C 40.285156 14.769531 40.355469 14.78125 40.601562 14.785156 C 40.773438 14.789062 40.925781 14.800781 40.941406 14.808594 C 40.957031 14.820312 41.058594 14.835938 41.171875 14.84375 C 41.707031 14.886719 42.238281 14.917969 42.484375 14.925781 C 42.632812 14.933594 42.953125 14.957031 43.191406 14.984375 C 43.429688 15.011719 43.734375 15.035156 43.867188 15.039062 C 44.796875 15.074219 45.539062 15.117188 45.925781 15.160156 C 46.0625 15.175781 46.296875 15.195312 46.449219 15.207031 C 46.601562 15.214844 46.734375 15.234375 46.742188 15.246094 C 46.75 15.261719 46.714844 15.273438 46.667969 15.273438 C 46.617188 15.273438 46.542969 15.277344 46.5 15.28125 C 46.460938 15.285156 46.417969 15.277344 46.414062 15.265625 C 46.40625 15.257812 46.355469 15.261719 46.300781 15.277344 C 46.246094 15.292969 46.121094 15.296875 46.023438 15.285156 C 45.925781 15.277344 45.40625 15.261719 44.871094 15.257812 C 44.332031 15.25 43.691406 15.238281 43.449219 15.226562 C 43.007812 15.210938 42.882812 15.222656 43.171875 15.25 C 43.253906 15.261719 43.324219 15.273438 43.332031 15.28125 C 43.351562 15.300781 43.25 15.347656 43.167969 15.359375 C 43.074219 15.371094 43.042969 15.40625 43.125 15.410156 C 43.160156 15.410156 43.347656 15.421875 43.542969 15.4375 C 43.734375 15.453125 44.117188 15.46875 44.390625 15.480469 C 44.835938 15.492188 44.882812 15.5 44.882812 15.542969 C 44.882812 15.601562 44.992188 15.617188 45.648438 15.644531 C 45.914062 15.652344 46.140625 15.671875 46.148438 15.683594 C 46.15625 15.699219 46.214844 15.707031 46.28125 15.707031 C 46.503906 15.707031 46.441406 15.785156 46.167969 15.84375 C 46.089844 15.863281 45.984375 15.875 45.9375 15.871094 C 45.605469 15.851562 45.691406 15.90625 46.0625 15.949219 C 46.210938 15.96875 46.417969 15.988281 46.523438 15.996094 C 46.628906 16.003906 46.816406 16.019531 46.945312 16.035156 C 47.070312 16.050781 47.328125 16.070312 47.511719 16.082031 C 47.742188 16.09375 47.859375 16.109375 47.878906 16.136719 C 47.894531 16.15625 47.988281 16.179688 48.09375 16.1875 C 48.199219 16.199219 48.296875 16.222656 48.3125 16.242188 C 48.328125 16.257812 48.429688 16.28125 48.539062 16.292969 C 48.644531 16.300781 48.761719 16.328125 48.796875 16.351562 C 48.835938 16.375 48.953125 16.394531 49.113281 16.402344 C 49.460938 16.417969 49.734375 16.449219 49.75 16.476562 C 49.765625 16.5 49.527344 16.539062 49.492188 16.515625 C 49.476562 16.503906 49.464844 16.511719 49.464844 16.523438 C 49.464844 16.539062 49.507812 16.558594 49.558594 16.566406 C 49.660156 16.585938 49.679688 16.621094 49.605469 16.652344 C 49.519531 16.6875 49.640625 16.742188 49.921875 16.789062 C 50.15625 16.832031 50.300781 16.882812 50.195312 16.886719 C 50.09375 16.886719 50.25 16.9375 50.414062 16.953125 C 50.507812 16.960938 50.601562 16.980469 50.621094 16.996094 C 50.636719 17.011719 50.726562 17.035156 50.824219 17.050781 C 51.085938 17.09375 51.082031 17.128906 50.8125 17.148438 C 50.714844 17.15625 50.625 17.179688 50.597656 17.207031 C 50.558594 17.238281 50.511719 17.246094 50.339844 17.226562 C 49.988281 17.195312 49.917969 17.203125 49.867188 17.273438 C 49.839844 17.304688 49.824219 17.34375 49.832031 17.351562 C 49.839844 17.363281 49.925781 17.382812 50.027344 17.390625 C 50.128906 17.402344 50.222656 17.421875 50.238281 17.433594 C 50.25 17.445312 50.320312 17.460938 50.390625 17.472656 C 50.585938 17.503906 50.546875 17.539062 50.320312 17.539062 C 50.214844 17.539062 50.113281 17.550781 50.101562 17.5625 C 50.089844 17.574219 49.976562 17.582031 49.851562 17.582031 C 49.6875 17.582031 49.613281 17.59375 49.605469 17.617188 C 49.597656 17.640625 49.628906 17.648438 49.699219 17.648438 C 49.757812 17.652344 49.84375 17.660156 49.898438 17.675781 C 49.949219 17.6875 50.097656 17.707031 50.222656 17.71875 C 50.347656 17.726562 50.464844 17.746094 50.480469 17.761719 C 50.5 17.773438 50.519531 17.78125 50.527344 17.769531 C 50.535156 17.761719 50.574219 17.765625 50.605469 17.777344 C 50.65625 17.792969 50.625 17.804688 50.480469 17.816406 C 50.308594 17.832031 50.109375 17.875 50.007812 17.914062 C 49.941406 17.9375 50.042969 17.96875 50.351562 18.007812 C 50.503906 18.027344 50.628906 18.050781 50.628906 18.0625 C 50.628906 18.070312 50.707031 18.070312 50.804688 18.066406 C 50.945312 18.054688 50.980469 18.0625 50.980469 18.09375 C 50.980469 18.144531 50.894531 18.226562 50.84375 18.222656 C 50.8125 18.222656 50.8125 18.21875 50.847656 18.199219 C 50.878906 18.175781 50.878906 18.171875 50.839844 18.171875 C 50.8125 18.171875 50.78125 18.1875 50.773438 18.210938 C 50.761719 18.25 50.710938 18.253906 50.441406 18.242188 C 50.105469 18.226562 50.023438 18.242188 50.085938 18.320312 C 50.191406 18.445312 50.613281 18.582031 50.902344 18.582031 C 51.078125 18.582031 51.171875 18.613281 51.171875 18.675781 C 51.171875 18.707031 51.128906 18.71875 50.960938 18.714844 C 50.847656 18.714844 50.703125 18.703125 50.644531 18.6875 C 50.582031 18.671875 50.300781 18.652344 50.019531 18.644531 C 49.515625 18.632812 49.503906 18.636719 49.5 18.6875 C 49.496094 18.742188 49.527344 18.777344 49.585938 18.789062 C 49.601562 18.789062 49.71875 18.8125 49.847656 18.835938 C 50.265625 18.917969 50.636719 18.964844 51.015625 18.988281 C 51.371094 19.011719 51.492188 19.042969 51.453125 19.101562 C 51.445312 19.117188 51.425781 19.121094 51.414062 19.113281 C 51.398438 19.101562 51.390625 19.113281 51.394531 19.132812 C 51.398438 19.152344 51.378906 19.167969 51.355469 19.164062 C 51.328125 19.164062 51.3125 19.171875 51.320312 19.183594 C 51.328125 19.195312 51.292969 19.210938 51.242188 19.222656 C 51.132812 19.242188 51.105469 19.289062 51.164062 19.371094 C 51.191406 19.414062 51.195312 19.441406 51.175781 19.464844 C 51.140625 19.507812 51.160156 19.539062 51.230469 19.539062 C 51.257812 19.539062 51.28125 19.542969 51.28125 19.550781 C 51.28125 19.554688 51.289062 19.582031 51.296875 19.609375 C 51.3125 19.652344 51.296875 19.652344 51.074219 19.636719 C 50.941406 19.625 50.785156 19.613281 50.730469 19.601562 C 50.648438 19.589844 50.628906 19.59375 50.628906 19.628906 C 50.628906 19.652344 50.609375 19.683594 50.585938 19.695312 C 50.523438 19.730469 50.5625 19.890625 50.640625 19.921875 C 50.695312 19.941406 50.695312 19.945312 50.644531 19.949219 C 50.589844 19.953125 50.589844 19.953125 50.644531 19.976562 C 50.695312 20 50.621094 20.007812 50.34375 20.015625 C 50.230469 20.019531 50.140625 20.054688 50.140625 20.101562 C 50.140625 20.125 50.113281 20.140625 50.066406 20.140625 C 50.027344 20.140625 49.964844 20.148438 49.929688 20.15625 C 49.875 20.171875 49.871094 20.175781 49.917969 20.210938 C 49.945312 20.230469 50 20.246094 50.039062 20.246094 C 50.082031 20.25 50.195312 20.292969 50.292969 20.34375 C 50.390625 20.398438 50.511719 20.441406 50.558594 20.441406 C 50.722656 20.441406 50.980469 20.476562 50.96875 20.496094 C 50.960938 20.507812 50.976562 20.515625 51 20.511719 C 51.027344 20.511719 51.050781 20.53125 51.058594 20.554688 C 51.070312 20.617188 50.910156 20.71875 50.828125 20.703125 C 50.792969 20.699219 50.761719 20.707031 50.757812 20.722656 C 50.742188 20.761719 50.429688 20.773438 50.300781 20.738281 C 50.246094 20.726562 49.96875 20.710938 49.683594 20.707031 C 49.203125 20.699219 49.058594 20.714844 49.242188 20.75 C 49.28125 20.757812 49.371094 20.777344 49.4375 20.792969 C 49.503906 20.808594 49.609375 20.820312 49.675781 20.820312 C 49.738281 20.824219 49.789062 20.835938 49.789062 20.851562 C 49.789062 20.867188 49.808594 20.878906 49.832031 20.878906 C 49.855469 20.878906 49.898438 20.890625 49.929688 20.90625 C 49.984375 20.9375 49.984375 20.9375 49.921875 20.96875 C 49.808594 21.027344 49.84375 21.078125 50.03125 21.140625 C 50.128906 21.167969 50.210938 21.210938 50.21875 21.234375 C 50.226562 21.257812 50.242188 21.28125 50.253906 21.289062 C 50.296875 21.316406 50.246094 21.402344 50.199219 21.382812 C 50.175781 21.375 50.164062 21.375 50.171875 21.382812 C 50.183594 21.394531 50.160156 21.433594 50.121094 21.46875 C 50.070312 21.519531 50.019531 21.539062 49.9375 21.542969 C 49.875 21.546875 49.828125 21.554688 49.832031 21.566406 C 49.839844 21.574219 49.726562 21.578125 49.582031 21.570312 C 49.375 21.558594 49.316406 21.566406 49.277344 21.597656 C 49.230469 21.644531 48.960938 21.664062 48.824219 21.628906 C 48.769531 21.617188 48.730469 21.621094 48.71875 21.640625 C 48.710938 21.65625 48.671875 21.671875 48.636719 21.671875 C 48.554688 21.671875 48.488281 21.695312 48.488281 21.730469 C 48.488281 21.742188 48.507812 21.753906 48.527344 21.753906 C 48.550781 21.753906 48.578125 21.773438 48.589844 21.792969 C 48.605469 21.820312 48.710938 21.855469 48.867188 21.886719 C 49.183594 21.949219 49.414062 22.042969 49.390625 22.097656 C 49.382812 22.121094 49.359375 22.132812 49.335938 22.125 C 49.316406 22.117188 49.304688 22.121094 49.3125 22.132812 C 49.320312 22.148438 49.296875 22.195312 49.257812 22.242188 C 49.207031 22.308594 49.171875 22.324219 49.132812 22.3125 C 49.101562 22.300781 49.085938 22.304688 49.09375 22.320312 C 49.101562 22.332031 49.066406 22.34375 49.015625 22.347656 C 48.960938 22.347656 48.835938 22.371094 48.730469 22.398438 L 48.539062 22.445312 L 48.601562 22.507812 C 48.632812 22.542969 48.671875 22.574219 48.683594 22.574219 C 48.699219 22.574219 48.753906 22.59375 48.804688 22.617188 C 48.894531 22.660156 48.894531 22.664062 48.855469 22.726562 C 48.828125 22.765625 48.824219 22.796875 48.839844 22.804688 C 48.855469 22.816406 48.859375 22.835938 48.851562 22.851562 C 48.839844 22.871094 48.824219 22.867188 48.808594 22.84375 C 48.792969 22.820312 48.777344 22.816406 48.765625 22.835938 C 48.753906 22.847656 48.710938 22.878906 48.664062 22.902344 L 48.582031 22.941406 L 48.667969 22.949219 C 48.761719 22.960938 48.8125 23.03125 48.742188 23.058594 C 48.722656 23.066406 48.695312 23.066406 48.6875 23.058594 C 48.679688 23.050781 48.632812 23.066406 48.582031 23.09375 C 48.53125 23.121094 48.445312 23.152344 48.390625 23.164062 C 48.332031 23.175781 48.269531 23.199219 48.25 23.21875 C 48.203125 23.269531 48.183594 23.265625 47.933594 23.203125 C 47.707031 23.144531 47.640625 23.148438 47.550781 23.234375 C 47.496094 23.285156 47.476562 23.285156 47.335938 23.257812 C 47.148438 23.226562 46.796875 23.21875 46.820312 23.253906 C 46.828125 23.265625 46.921875 23.289062 47.03125 23.308594 C 47.308594 23.355469 47.339844 23.367188 47.292969 23.394531 C 47.214844 23.445312 47.566406 23.5625 47.914062 23.597656 C 48.003906 23.609375 48.085938 23.628906 48.09375 23.640625 C 48.101562 23.652344 48.082031 23.695312 48.050781 23.734375 C 48 23.800781 47.996094 23.8125 48.039062 23.855469 C 48.0625 23.882812 48.082031 23.910156 48.082031 23.917969 C 48.082031 23.953125 47.621094 23.90625 47.472656 23.855469 C 47.253906 23.785156 46.816406 23.730469 46.773438 23.773438 C 46.753906 23.792969 46.753906 23.8125 46.773438 23.835938 C 46.804688 23.871094 46.847656 23.886719 47.207031 23.984375 C 47.320312 24.015625 47.378906 24.042969 47.378906 24.070312 C 47.378906 24.105469 47.34375 24.109375 47.175781 24.09375 C 47.046875 24.082031 46.96875 24.085938 46.957031 24.105469 C 46.949219 24.121094 46.957031 24.132812 46.972656 24.132812 C 46.992188 24.132812 47 24.140625 46.992188 24.148438 C 46.972656 24.164062 46.589844 24.082031 46.550781 24.054688 C 46.523438 24.03125 46.125 23.96875 46.042969 23.972656 C 46.015625 23.976562 45.996094 23.992188 45.996094 24.011719 C 45.996094 24.03125 45.988281 24.0625 45.980469 24.082031 C 45.96875 24.117188 46.296875 24.1875 46.867188 24.273438 C 46.953125 24.285156 47.070312 24.316406 47.121094 24.335938 C 47.175781 24.359375 47.257812 24.378906 47.304688 24.378906 C 47.429688 24.378906 47.605469 24.433594 47.578125 24.460938 C 47.5625 24.476562 47.398438 24.488281 47.210938 24.496094 C 47.019531 24.5 46.867188 24.503906 46.871094 24.507812 C 46.875 24.507812 46.9375 24.535156 47.011719 24.5625 C 47.136719 24.613281 47.140625 24.617188 47.082031 24.652344 C 47.035156 24.675781 46.988281 24.675781 46.886719 24.652344 C 46.722656 24.617188 46.699219 24.617188 46.699219 24.648438 C 46.699219 24.664062 46.734375 24.683594 46.78125 24.691406 C 46.929688 24.726562 46.898438 24.761719 46.71875 24.761719 C 46.617188 24.761719 46.511719 24.777344 46.460938 24.804688 C 46.410156 24.832031 46.351562 24.839844 46.316406 24.828125 C 46.238281 24.804688 44.964844 24.792969 44.980469 24.820312 C 45.011719 24.871094 44.65625 24.871094 44.351562 24.816406 C 43.738281 24.714844 43.214844 24.652344 42.878906 24.648438 C 42.691406 24.648438 42.410156 24.628906 42.253906 24.609375 C 42.097656 24.589844 41.820312 24.558594 41.636719 24.542969 C 41.449219 24.527344 41.292969 24.511719 41.28125 24.503906 C 41.273438 24.5 41.175781 24.484375 41.0625 24.476562 C 40.949219 24.46875 40.816406 24.453125 40.765625 24.449219 C 40.65625 24.433594 40.160156 24.40625 39.800781 24.394531 C 39.542969 24.382812 39.148438 24.359375 38.878906 24.335938 C 38.792969 24.328125 38.445312 24.316406 38.109375 24.308594 C 37.773438 24.300781 37.375 24.285156 37.226562 24.273438 C 37.078125 24.261719 36.664062 24.253906 36.3125 24.253906 C 35.773438 24.257812 35.660156 24.265625 35.640625 24.296875 C 35.617188 24.332031 35.609375 24.332031 35.589844 24.300781 C 35.574219 24.273438 35.539062 24.265625 35.484375 24.277344 C 35.441406 24.285156 35.390625 24.28125 35.375 24.265625 C 35.359375 24.246094 35.304688 24.230469 35.257812 24.226562 C 35.207031 24.226562 35.144531 24.214844 35.113281 24.207031 C 34.949219 24.15625 34.78125 24.144531 34.714844 24.171875 C 34.660156 24.195312 34.523438 24.167969 34.542969 24.136719 C 34.546875 24.125 34.417969 24.113281 34.25 24.109375 C 33.800781 24.097656 33.753906 24.09375 33.703125 24.050781 C 33.664062 24.015625 33.660156 24.019531 33.667969 24.066406 C 33.675781 24.101562 33.664062 24.117188 33.636719 24.109375 C 33.613281 24.105469 33.566406 24.097656 33.535156 24.097656 C 33.5 24.097656 33.472656 24.089844 33.472656 24.078125 C 33.472656 24.066406 33.453125 24.050781 33.429688 24.039062 C 33.398438 24.027344 33.390625 24.035156 33.402344 24.066406 C 33.414062 24.09375 33.410156 24.101562 33.386719 24.085938 C 33.367188 24.074219 33.234375 24.0625 33.09375 24.054688 C 32.796875 24.046875 32.839844 24.046875 31.441406 24.050781 C 30.851562 24.054688 30.296875 24.046875 30.203125 24.035156 C 30.109375 24.023438 30.015625 24.023438 29.988281 24.035156 C 29.945312 24.050781 29.058594 24.085938 28.785156 24.082031 C 28.574219 24.078125 28.332031 24.203125 28.464844 24.25 C 28.488281 24.253906 28.472656 24.273438 28.433594 24.296875 C 28.394531 24.316406 28.359375 24.34375 28.351562 24.355469 C 28.320312 24.402344 28.089844 24.425781 28.023438 24.390625 C 27.984375 24.371094 27.875 24.363281 27.703125 24.367188 C 27.558594 24.375 27.089844 24.382812 26.660156 24.390625 C 26.230469 24.402344 25.847656 24.414062 25.8125 24.421875 C 25.777344 24.433594 25.621094 24.441406 25.46875 24.445312 C 25.316406 24.445312 25.167969 24.460938 25.140625 24.480469 C 25.085938 24.507812 24.835938 24.558594 24.792969 24.546875 C 24.742188 24.535156 24.644531 24.539062 24.558594 24.554688 C 24.503906 24.566406 24.4375 24.574219 24.40625 24.574219 C 24.378906 24.570312 24.328125 24.566406 24.300781 24.5625 C 24.269531 24.5625 24.128906 24.574219 23.988281 24.589844 C 23.847656 24.609375 23.675781 24.621094 23.613281 24.621094 C 23.546875 24.621094 23.480469 24.632812 23.464844 24.648438 C 23.445312 24.660156 23.394531 24.683594 23.34375 24.691406 C 23.273438 24.707031 23.257812 24.703125 23.257812 24.664062 C 23.257812 24.625 23.234375 24.621094 23.058594 24.636719 C 22.953125 24.648438 22.667969 24.660156 22.429688 24.664062 C 22.191406 24.667969 21.929688 24.683594 21.851562 24.703125 C 21.769531 24.71875 21.699219 24.734375 21.691406 24.734375 C 21.683594 24.734375 21.691406 24.753906 21.710938 24.777344 C 21.730469 24.796875 21.785156 24.816406 21.835938 24.816406 C 21.886719 24.816406 21.929688 24.820312 21.929688 24.828125 C 21.929688 24.835938 21.933594 24.859375 21.945312 24.882812 C 21.96875 24.941406 21.890625 24.9375 21.832031 24.878906 C 21.796875 24.84375 21.78125 24.839844 21.773438 24.863281 C 21.765625 24.882812 21.75 24.890625 21.734375 24.882812 C 21.722656 24.875 21.710938 24.878906 21.710938 24.890625 C 21.710938 24.902344 21.683594 24.914062 21.648438 24.914062 C 21.617188 24.917969 21.429688 24.933594 21.238281 24.949219 C 21.042969 24.96875 20.652344 24.984375 20.371094 24.992188 C 20.085938 24.996094 19.824219 25.007812 19.785156 25.019531 C 19.660156 25.046875 18.964844 25.109375 18.59375 25.128906 C 17.90625 25.164062 17.382812 25.261719 17.273438 25.378906 C 17.242188 25.417969 17.183594 25.445312 17.140625 25.449219 C 16.789062 25.460938 16.300781 25.496094 16.085938 25.527344 C 16 25.539062 15.839844 25.558594 15.738281 25.566406 C 15.636719 25.578125 15.492188 25.597656 15.417969 25.609375 C 15.34375 25.625 15.277344 25.636719 15.269531 25.636719 C 15.265625 25.636719 15.261719 25.605469 15.261719 25.566406 Z M 15.261719 25.316406 C 15.261719 25.289062 15.25 25.285156 15.207031 25.308594 C 15.175781 25.324219 15.160156 25.355469 15.171875 25.378906 C 15.183594 25.410156 15.195312 25.414062 15.222656 25.386719 C 15.242188 25.371094 15.261719 25.339844 15.261719 25.316406 Z M 19.828125 24.910156 C 19.933594 24.871094 19.929688 24.871094 19.707031 24.886719 C 19.191406 24.917969 19.027344 24.933594 19.027344 24.949219 C 19.027344 24.988281 19.714844 24.953125 19.828125 24.910156 Z M 7.238281 24.582031 C 7.238281 24.574219 7.21875 24.570312 7.199219 24.570312 C 7.175781 24.570312 7.15625 24.582031 7.15625 24.597656 C 7.15625 24.613281 7.175781 24.617188 7.199219 24.609375 C 7.21875 24.597656 7.238281 24.585938 7.238281 24.582031 Z M 9.203125 24.488281 C 9.214844 24.472656 9.191406 24.460938 9.152344 24.460938 C 9.117188 24.460938 9.078125 24.472656 9.066406 24.488281 C 9.058594 24.503906 9.082031 24.515625 9.121094 24.515625 C 9.15625 24.515625 9.195312 24.503906 9.203125 24.488281 Z M 7.917969 24.347656 C 7.917969 24.320312 7.882812 24.316406 7.824219 24.339844 C 7.753906 24.367188 7.773438 24.398438 7.847656 24.386719 C 7.886719 24.378906 7.917969 24.363281 7.917969 24.347656 Z M 23.25 24.34375 C 23.34375 24.316406 23.355469 24.308594 23.3125 24.296875 C 23.238281 24.28125 22.375 24.316406 21.914062 24.355469 C 21.789062 24.367188 22.757812 24.394531 22.957031 24.382812 C 23.054688 24.378906 23.1875 24.363281 23.25 24.34375 Z M 24.191406 24.257812 C 24.222656 24.253906 24.167969 24.246094 24.070312 24.25 C 23.839844 24.25 23.746094 24.277344 23.894531 24.296875 C 23.953125 24.304688 24.03125 24.304688 24.070312 24.292969 C 24.105469 24.28125 24.160156 24.265625 24.191406 24.257812 Z M 6.894531 24.269531 C 6.953125 24.265625 6.949219 24.265625 6.886719 24.238281 C 6.8125 24.210938 6.75 24.222656 6.75 24.273438 C 6.75 24.289062 6.769531 24.296875 6.792969 24.285156 C 6.816406 24.277344 6.863281 24.269531 6.894531 24.269531 Z M 24.597656 24.238281 C 24.605469 24.230469 24.558594 24.222656 24.492188 24.21875 C 24.425781 24.214844 24.363281 24.226562 24.351562 24.246094 C 24.339844 24.265625 24.371094 24.273438 24.460938 24.261719 C 24.527344 24.257812 24.589844 24.246094 24.597656 24.238281 Z M 45.792969 23.914062 C 45.800781 23.898438 45.757812 23.886719 45.679688 23.890625 C 45.5625 23.894531 45.558594 23.894531 45.628906 23.914062 C 45.746094 23.945312 45.773438 23.945312 45.792969 23.914062 Z M 4.019531 23.511719 C 4 23.503906 3.976562 23.503906 3.964844 23.515625 C 3.957031 23.523438 3.972656 23.53125 4.003906 23.527344 C 4.035156 23.527344 4.039062 23.519531 4.019531 23.511719 Z M 4.339844 23.476562 C 4.394531 23.457031 4.394531 23.453125 4.351562 23.453125 C 4.324219 23.453125 4.273438 23.464844 4.242188 23.476562 C 4.175781 23.507812 4.246094 23.507812 4.339844 23.476562 Z M 4.703125 23.488281 C 4.726562 23.476562 4.746094 23.449219 4.746094 23.421875 C 4.746094 23.378906 4.726562 23.375 4.628906 23.386719 C 4.503906 23.402344 4.425781 23.449219 4.523438 23.449219 C 4.554688 23.449219 4.585938 23.460938 4.597656 23.476562 C 4.617188 23.507812 4.640625 23.511719 4.703125 23.488281 Z M 48.730469 23.011719 C 48.730469 22.996094 48.710938 22.984375 48.683594 22.984375 C 48.644531 22.984375 48.644531 22.988281 48.679688 23.011719 C 48.730469 23.042969 48.730469 23.042969 48.730469 23.011719 Z M 5.375 21.898438 C 5.355469 21.890625 5.332031 21.890625 5.320312 21.902344 C 5.3125 21.910156 5.328125 21.917969 5.355469 21.914062 C 5.390625 21.914062 5.394531 21.90625 5.375 21.898438 Z M 5.152344 21.820312 C 5.152344 21.773438 5.078125 21.769531 4.976562 21.808594 C 4.871094 21.847656 4.894531 21.878906 5.03125 21.867188 C 5.113281 21.859375 5.152344 21.84375 5.152344 21.820312 Z M 5.65625 21.839844 C 5.628906 21.792969 5.53125 21.78125 5.53125 21.824219 C 5.53125 21.847656 5.558594 21.863281 5.601562 21.863281 C 5.640625 21.863281 5.664062 21.851562 5.65625 21.839844 Z M 5.449219 21.808594 C 5.480469 21.789062 5.464844 21.78125 5.390625 21.78125 C 5.332031 21.78125 5.289062 21.792969 5.289062 21.808594 C 5.289062 21.84375 5.398438 21.84375 5.449219 21.808594 Z M 50.628906 18.609375 C 50.628906 18.59375 50.617188 18.582031 50.601562 18.582031 C 50.585938 18.582031 50.574219 18.59375 50.574219 18.609375 C 50.574219 18.621094 50.585938 18.636719 50.601562 18.636719 C 50.617188 18.636719 50.628906 18.621094 50.628906 18.609375 Z M 50.824219 18.097656 C 50.808594 18.089844 50.777344 18.089844 50.757812 18.097656 C 50.738281 18.105469 50.753906 18.109375 50.792969 18.109375 C 50.828125 18.109375 50.84375 18.105469 50.824219 18.097656 Z M 50.417969 17.769531 C 50.386719 17.761719 50.332031 17.761719 50.296875 17.769531 C 50.265625 17.773438 50.292969 17.78125 50.359375 17.78125 C 50.425781 17.78125 50.453125 17.773438 50.417969 17.769531 Z M 49.164062 17.546875 C 49.164062 17.535156 49.066406 17.511719 48.941406 17.492188 C 48.820312 17.476562 48.6875 17.453125 48.652344 17.441406 C 48.613281 17.429688 48.59375 17.433594 48.605469 17.449219 C 48.613281 17.464844 48.730469 17.492188 48.859375 17.511719 C 48.992188 17.53125 49.109375 17.550781 49.125 17.554688 C 49.140625 17.558594 49.15625 17.566406 49.160156 17.566406 C 49.164062 17.566406 49.164062 17.558594 49.164062 17.546875 Z M 9.636719 17.292969 C 9.6875 17.273438 9.683594 17.269531 9.617188 17.269531 C 9.578125 17.269531 9.539062 17.28125 9.527344 17.292969 C 9.507812 17.328125 9.5625 17.328125 9.636719 17.292969 Z M 48.976562 17.132812 C 48.976562 17.121094 48.855469 17.097656 48.703125 17.078125 C 48.367188 17.042969 48.308594 17.039062 48.339844 17.074219 C 48.355469 17.089844 48.5 17.113281 48.664062 17.125 C 48.828125 17.140625 48.964844 17.152344 48.96875 17.152344 C 48.972656 17.15625 48.976562 17.148438 48.976562 17.132812 Z M 8.117188 16.808594 C 8.125 16.792969 8.113281 16.785156 8.089844 16.785156 C 8.070312 16.785156 8.050781 16.792969 8.050781 16.808594 C 8.050781 16.820312 8.0625 16.828125 8.078125 16.828125 C 8.089844 16.828125 8.109375 16.820312 8.117188 16.808594 Z M 11.742188 16.757812 C 11.722656 16.75 11.699219 16.75 11.691406 16.757812 C 11.683594 16.765625 11.699219 16.773438 11.726562 16.773438 C 11.757812 16.773438 11.765625 16.765625 11.742188 16.757812 Z M 7.535156 16.71875 C 7.535156 16.707031 7.515625 16.691406 7.488281 16.691406 C 7.449219 16.695312 7.449219 16.699219 7.484375 16.71875 C 7.535156 16.753906 7.535156 16.753906 7.535156 16.71875 Z M 7.644531 16.675781 C 7.644531 16.671875 7.632812 16.664062 7.617188 16.664062 C 7.601562 16.664062 7.589844 16.679688 7.589844 16.695312 C 7.589844 16.710938 7.601562 16.714844 7.617188 16.707031 C 7.632812 16.699219 7.644531 16.683594 7.644531 16.675781 Z M 9.191406 16.488281 C 9.226562 16.476562 9.34375 16.457031 9.449219 16.445312 C 9.550781 16.433594 9.679688 16.410156 9.730469 16.394531 C 9.785156 16.378906 9.828125 16.367188 9.828125 16.367188 C 9.828125 16.378906 10.011719 16.320312 10.105469 16.28125 C 10.246094 16.21875 10.253906 16.171875 10.125 16.171875 C 10.058594 16.171875 10.03125 16.160156 10.03125 16.132812 C 10.03125 16.089844 10.152344 16.074219 10.351562 16.089844 C 10.441406 16.09375 10.691406 16.046875 10.75 16.011719 C 10.789062 15.988281 10.652344 15.960938 10.476562 15.957031 C 10.359375 15.957031 10.261719 15.972656 10.140625 16.023438 C 10.042969 16.058594 9.941406 16.089844 9.910156 16.089844 C 9.867188 16.09375 9.863281 16.097656 9.894531 16.117188 C 9.914062 16.132812 9.941406 16.136719 9.953125 16.128906 C 9.964844 16.121094 9.976562 16.128906 9.976562 16.140625 C 9.976562 16.164062 9.917969 16.183594 9.710938 16.21875 C 9.660156 16.226562 9.613281 16.25 9.605469 16.273438 C 9.59375 16.304688 9.582031 16.304688 9.546875 16.277344 C 9.511719 16.246094 9.507812 16.25 9.519531 16.285156 C 9.53125 16.316406 9.519531 16.328125 9.480469 16.324219 C 9.445312 16.320312 9.378906 16.328125 9.332031 16.34375 C 9.269531 16.359375 9.230469 16.359375 9.203125 16.335938 C 9.179688 16.316406 9.164062 16.316406 9.164062 16.332031 C 9.164062 16.359375 8.957031 16.445312 8.882812 16.445312 C 8.859375 16.445312 8.835938 16.464844 8.835938 16.484375 C 8.835938 16.511719 8.875 16.519531 8.980469 16.515625 C 9.058594 16.507812 9.152344 16.496094 9.191406 16.488281 Z M 10.304688 15.496094 C 10.285156 15.488281 10.257812 15.496094 10.242188 15.511719 C 10.21875 15.53125 10.230469 15.535156 10.277344 15.523438 C 10.3125 15.515625 10.324219 15.503906 10.304688 15.496094 Z M 43.039062 15.386719 C 43.039062 15.375 43.003906 15.363281 42.957031 15.359375 C 42.910156 15.355469 42.882812 15.367188 42.890625 15.382812 C 42.910156 15.410156 43.039062 15.417969 43.039062 15.386719 Z M 10.382812 15.214844 L 10.449219 15.210938 L 10.386719 15.1875 C 10.316406 15.15625 10.191406 15.179688 10.191406 15.222656 C 10.191406 15.238281 10.21875 15.242188 10.253906 15.234375 C 10.289062 15.222656 10.34375 15.214844 10.382812 15.214844 Z M 42.824219 15.21875 C 42.824219 15.207031 42.804688 15.199219 42.785156 15.199219 C 42.761719 15.199219 42.742188 15.207031 42.742188 15.21875 C 42.742188 15.234375 42.761719 15.242188 42.785156 15.242188 C 42.804688 15.242188 42.824219 15.234375 42.824219 15.21875 Z M 42.9375 15.222656 C 42.917969 15.214844 42.894531 15.21875 42.886719 15.226562 C 42.875 15.234375 42.890625 15.242188 42.921875 15.242188 C 42.953125 15.238281 42.960938 15.234375 42.9375 15.222656 Z M 10.847656 15.167969 C 10.828125 15.160156 10.804688 15.164062 10.796875 15.171875 C 10.789062 15.179688 10.804688 15.1875 10.832031 15.1875 C 10.863281 15.183594 10.871094 15.179688 10.847656 15.167969 Z M 7.808594 15.132812 C 7.808594 15.117188 7.796875 15.105469 7.78125 15.105469 C 7.765625 15.105469 7.753906 15.117188 7.753906 15.132812 C 7.753906 15.148438 7.765625 15.160156 7.78125 15.160156 C 7.796875 15.160156 7.808594 15.148438 7.808594 15.132812 Z M 8.511719 15.0625 C 8.511719 15.03125 8.460938 15.058594 8.445312 15.097656 C 8.433594 15.132812 8.4375 15.136719 8.472656 15.105469 C 8.492188 15.089844 8.511719 15.066406 8.511719 15.0625 Z M 8.785156 15.066406 C 8.785156 15.042969 8.777344 15.023438 8.773438 15.023438 C 8.765625 15.023438 8.753906 15.042969 8.746094 15.066406 C 8.738281 15.089844 8.742188 15.105469 8.757812 15.105469 C 8.773438 15.105469 8.785156 15.089844 8.785156 15.066406 Z M 44.265625 14.128906 C 44.246094 14.121094 44.222656 14.125 44.214844 14.132812 C 44.203125 14.140625 44.21875 14.148438 44.25 14.148438 C 44.28125 14.144531 44.285156 14.140625 44.265625 14.128906 Z M 19.3125 13.578125 C 19.320312 13.5625 19.316406 13.542969 19.300781 13.535156 C 19.289062 13.527344 19.269531 13.539062 19.261719 13.5625 C 19.246094 13.605469 19.285156 13.617188 19.3125 13.578125 Z M 6.449219 25.316406 C 6.433594 25.296875 6.429688 25.28125 6.441406 25.28125 C 6.457031 25.28125 6.445312 25.265625 6.414062 25.25 C 6.34375 25.207031 6.40625 25.171875 6.546875 25.175781 C 6.621094 25.175781 6.636719 25.183594 6.601562 25.195312 C 6.550781 25.210938 6.511719 25.28125 6.554688 25.28125 C 6.632812 25.28125 6.691406 25.242188 6.679688 25.203125 C 6.667969 25.164062 6.671875 25.164062 6.703125 25.207031 C 6.75 25.261719 6.957031 25.273438 6.972656 25.21875 C 6.984375 25.191406 6.996094 25.191406 7.027344 25.222656 C 7.082031 25.265625 7.113281 25.371094 7.066406 25.355469 C 7.050781 25.347656 7.039062 25.328125 7.042969 25.304688 C 7.050781 25.28125 7.039062 25.28125 7.003906 25.316406 C 6.960938 25.351562 6.90625 25.359375 6.714844 25.355469 C 6.5625 25.351562 6.464844 25.335938 6.449219 25.316406 Z M 6.074219 25.253906 C 6.039062 25.234375 6.054688 25.171875 6.097656 25.171875 C 6.128906 25.171875 6.15625 25.25 6.132812 25.265625 C 6.121094 25.273438 6.09375 25.269531 6.074219 25.253906 Z M 6.648438 25.035156 C 6.617188 24.988281 6.621094 24.980469 6.675781 24.976562 C 6.710938 24.972656 6.753906 24.96875 6.777344 24.96875 C 6.851562 24.960938 6.863281 24.984375 6.816406 25.039062 C 6.757812 25.105469 6.691406 25.105469 6.648438 25.035156 Z M 23.066406 24.832031 C 23.066406 24.824219 23.078125 24.8125 23.09375 24.804688 C 23.109375 24.792969 23.121094 24.800781 23.121094 24.816406 C 23.121094 24.832031 23.109375 24.84375 23.09375 24.84375 C 23.078125 24.84375 23.066406 24.839844 23.066406 24.832031 Z M 23.382812 24.8125 C 23.402344 24.792969 23.425781 24.785156 23.433594 24.792969 C 23.441406 24.804688 23.425781 24.816406 23.398438 24.828125 C 23.359375 24.84375 23.359375 24.839844 23.382812 24.8125 Z M 8.835938 24.738281 C 8.835938 24.726562 8.855469 24.699219 8.878906 24.679688 C 8.910156 24.652344 8.929688 24.652344 8.953125 24.675781 C 8.980469 24.703125 8.976562 24.714844 8.945312 24.734375 C 8.894531 24.769531 8.835938 24.769531 8.835938 24.738281 Z M 39.4375 24.488281 C 39.4375 24.472656 39.453125 24.460938 39.476562 24.460938 C 39.496094 24.460938 39.523438 24.472656 39.53125 24.488281 C 39.539062 24.503906 39.523438 24.515625 39.492188 24.515625 C 39.460938 24.515625 39.4375 24.503906 39.4375 24.488281 Z M 38.976562 24.460938 C 38.976562 24.429688 39.046875 24.425781 39.066406 24.457031 C 39.074219 24.46875 39.054688 24.480469 39.027344 24.480469 C 39 24.484375 38.976562 24.472656 38.976562 24.460938 Z M 12.097656 24.414062 C 12.074219 24.351562 12.109375 24.339844 12.203125 24.386719 C 12.253906 24.414062 12.28125 24.433594 12.265625 24.4375 C 12.152344 24.453125 12.109375 24.449219 12.097656 24.414062 Z M 35.535156 24.351562 C 35.535156 24.335938 35.539062 24.324219 35.546875 24.324219 C 35.550781 24.324219 35.566406 24.335938 35.574219 24.351562 C 35.582031 24.367188 35.578125 24.378906 35.5625 24.378906 C 35.546875 24.378906 35.535156 24.367188 35.535156 24.351562 Z M 35.144531 24.328125 C 35.132812 24.308594 35.128906 24.285156 35.136719 24.277344 C 35.160156 24.253906 35.1875 24.289062 35.175781 24.328125 C 35.167969 24.355469 35.160156 24.355469 35.144531 24.328125 Z M 35.242188 24.332031 C 35.1875 24.3125 35.203125 24.273438 35.261719 24.289062 C 35.292969 24.296875 35.316406 24.3125 35.316406 24.328125 C 35.316406 24.351562 35.296875 24.355469 35.242188 24.332031 Z M 48.234375 24.195312 C 48.203125 24.164062 48.214844 24.132812 48.257812 24.132812 C 48.28125 24.132812 48.296875 24.152344 48.296875 24.171875 C 48.296875 24.214844 48.265625 24.226562 48.234375 24.195312 Z M 14.601562 24.027344 C 14.59375 24.015625 14.609375 24.003906 14.640625 24.003906 C 14.667969 24 14.6875 24.011719 14.675781 24.023438 C 14.65625 24.054688 14.617188 24.058594 14.601562 24.027344 Z M 14.84375 23.980469 C 14.851562 23.960938 14.878906 23.941406 14.90625 23.9375 C 14.929688 23.9375 15.003906 23.929688 15.070312 23.925781 C 15.160156 23.914062 15.183594 23.921875 15.152344 23.941406 C 15.117188 23.964844 15.117188 23.96875 15.148438 23.96875 C 15.171875 23.96875 15.179688 23.976562 15.171875 23.984375 C 15.164062 23.996094 15.082031 24.007812 14.992188 24.011719 C 14.855469 24.019531 14.832031 24.015625 14.84375 23.980469 Z M 3.785156 23.914062 C 3.765625 23.882812 3.816406 23.851562 3.851562 23.875 C 3.882812 23.890625 3.863281 23.941406 3.824219 23.941406 C 3.8125 23.941406 3.792969 23.929688 3.785156 23.914062 Z M 4.039062 23.203125 C 4.039062 23.191406 4.054688 23.171875 4.066406 23.160156 C 4.082031 23.152344 4.085938 23.164062 4.078125 23.1875 C 4.058594 23.234375 4.039062 23.242188 4.039062 23.203125 Z M 4.238281 23.191406 C 4.238281 23.167969 4.25 23.15625 4.261719 23.164062 C 4.273438 23.171875 4.277344 23.191406 4.269531 23.203125 C 4.246094 23.242188 4.238281 23.238281 4.238281 23.191406 Z M 51.46875 19.621094 C 51.445312 19.605469 51.441406 19.59375 51.457031 19.59375 C 51.472656 19.59375 51.5 19.605469 51.523438 19.621094 C 51.546875 19.632812 51.550781 19.644531 51.539062 19.644531 C 51.523438 19.644531 51.492188 19.632812 51.46875 19.621094 Z M 6.941406 17.589844 C 6.941406 17.578125 6.964844 17.566406 6.996094 17.566406 C 7.023438 17.566406 7.050781 17.578125 7.050781 17.59375 C 7.050781 17.609375 7.023438 17.617188 6.996094 17.617188 C 6.964844 17.613281 6.941406 17.601562 6.941406 17.589844 Z M 8.074219 17.1875 L 8.011719 17.136719 L 8.175781 17.113281 C 8.261719 17.101562 8.402344 17.09375 8.480469 17.089844 C 8.558594 17.089844 8.621094 17.082031 8.621094 17.070312 C 8.621094 17.050781 8.78125 17.09375 8.808594 17.121094 C 8.816406 17.128906 8.785156 17.132812 8.742188 17.121094 C 8.6875 17.113281 8.625 17.121094 8.578125 17.148438 C 8.535156 17.171875 8.433594 17.191406 8.355469 17.191406 C 8.277344 17.195312 8.214844 17.207031 8.214844 17.21875 C 8.214844 17.257812 8.140625 17.242188 8.074219 17.1875 Z M 7.734375 17.195312 C 7.742188 17.1875 7.765625 17.1875 7.785156 17.195312 C 7.808594 17.203125 7.800781 17.210938 7.769531 17.210938 C 7.742188 17.210938 7.726562 17.207031 7.734375 17.195312 Z M 7.242188 16.816406 C 7.238281 16.789062 7.246094 16.773438 7.253906 16.78125 C 7.265625 16.792969 7.265625 16.816406 7.257812 16.835938 C 7.25 16.855469 7.242188 16.851562 7.242188 16.816406 Z M 7.980469 16.589844 C 7.988281 16.574219 7.96875 16.542969 7.9375 16.519531 C 7.886719 16.472656 7.886719 16.46875 8.050781 16.390625 C 8.25 16.296875 8.269531 16.292969 8.269531 16.363281 C 8.269531 16.398438 8.25 16.417969 8.222656 16.417969 C 8.183594 16.421875 8.179688 16.425781 8.210938 16.445312 C 8.234375 16.457031 8.273438 16.464844 8.300781 16.460938 C 8.328125 16.453125 8.351562 16.460938 8.351562 16.476562 C 8.351562 16.492188 8.308594 16.503906 8.261719 16.5 C 8.214844 16.5 8.148438 16.496094 8.121094 16.5 C 8.074219 16.5 8.070312 16.507812 8.105469 16.527344 C 8.140625 16.550781 8.140625 16.554688 8.097656 16.554688 C 8.074219 16.554688 8.050781 16.570312 8.050781 16.582031 C 8.050781 16.597656 8.03125 16.609375 8.007812 16.609375 C 7.984375 16.609375 7.972656 16.601562 7.980469 16.589844 Z M 8.328125 16.367188 C 8.300781 16.351562 8.300781 16.339844 8.332031 16.3125 C 8.375 16.277344 8.410156 16.308594 8.382812 16.359375 C 8.371094 16.375 8.347656 16.378906 8.328125 16.367188 Z M 7.386719 15.214844 C 7.378906 15.199219 7.390625 15.1875 7.410156 15.1875 C 7.433594 15.1875 7.460938 15.199219 7.46875 15.214844 C 7.476562 15.230469 7.46875 15.242188 7.445312 15.242188 C 7.421875 15.242188 7.398438 15.230469 7.386719 15.214844 Z M 7.941406 15.09375 C 7.980469 15.046875 7.996094 15.042969 7.996094 15.078125 C 7.996094 15.089844 7.976562 15.109375 7.953125 15.117188 C 7.914062 15.132812 7.914062 15.128906 7.941406 15.09375 Z M 46.246094 14.652344 C 46.277344 14.621094 46.453125 14.59375 46.488281 14.617188 C 46.507812 14.628906 46.511719 14.640625 46.496094 14.644531 C 46.351562 14.660156 46.234375 14.664062 46.246094 14.652344 Z M 46.082031 14.617188 C 46.058594 14.605469 46.078125 14.597656 46.128906 14.597656 C 46.175781 14.597656 46.210938 14.605469 46.210938 14.617188 C 46.210938 14.648438 46.128906 14.648438 46.082031 14.617188 Z M 45.386719 14.582031 C 45.269531 14.558594 44.988281 14.539062 44.460938 14.523438 C 44.28125 14.515625 44.105469 14.496094 44.074219 14.480469 C 44.039062 14.460938 43.917969 14.453125 43.773438 14.457031 C 43.636719 14.460938 43.527344 14.460938 43.527344 14.457031 C 43.527344 14.449219 43.6875 14.367188 43.703125 14.367188 C 43.714844 14.367188 43.714844 14.378906 43.703125 14.394531 C 43.695312 14.410156 43.722656 14.421875 43.769531 14.421875 C 43.816406 14.421875 43.855469 14.410156 43.855469 14.394531 C 43.855469 14.378906 43.867188 14.367188 43.882812 14.367188 C 43.898438 14.367188 43.902344 14.382812 43.890625 14.402344 C 43.875 14.425781 43.878906 14.429688 43.910156 14.410156 C 43.929688 14.394531 43.972656 14.382812 44.003906 14.382812 C 44.03125 14.386719 44.121094 14.390625 44.199219 14.390625 C 44.28125 14.394531 44.339844 14.40625 44.332031 14.414062 C 44.324219 14.425781 44.394531 14.433594 44.488281 14.433594 C 44.578125 14.429688 44.675781 14.441406 44.699219 14.453125 C 44.734375 14.472656 44.75 14.46875 44.75 14.449219 C 44.75 14.433594 44.761719 14.429688 44.78125 14.441406 C 44.800781 14.449219 44.917969 14.464844 45.046875 14.46875 C 45.171875 14.472656 45.277344 14.476562 45.277344 14.476562 C 45.277344 14.480469 45.335938 14.484375 45.414062 14.492188 C 45.488281 14.496094 45.550781 14.503906 45.554688 14.503906 C 45.5625 14.511719 45.589844 14.519531 45.636719 14.53125 C 45.65625 14.535156 45.53125 14.613281 45.507812 14.609375 C 45.5 14.609375 45.445312 14.597656 45.386719 14.582031 Z M 44.289062 14.445312 C 44.289062 14.433594 44.265625 14.421875 44.234375 14.421875 C 44.207031 14.421875 44.175781 14.433594 44.167969 14.445312 C 44.160156 14.460938 44.183594 14.46875 44.21875 14.46875 C 44.257812 14.46875 44.289062 14.460938 44.289062 14.445312 Z M 45.738281 14.367188 C 45.726562 14.351562 45.707031 14.347656 45.695312 14.355469 C 45.679688 14.363281 45.667969 14.359375 45.667969 14.34375 C 45.667969 14.289062 45.714844 14.289062 45.746094 14.34375 C 45.765625 14.371094 45.773438 14.394531 45.765625 14.394531 C 45.757812 14.394531 45.746094 14.382812 45.738281 14.367188 Z M 45.15625 14.261719 C 45.128906 14.230469 45.097656 14.214844 45.09375 14.222656 C 45.085938 14.226562 45.019531 14.238281 44.949219 14.242188 C 44.820312 14.25 44.667969 14.195312 44.707031 14.15625 C 44.738281 14.125 44.925781 14.132812 44.964844 14.164062 C 45.007812 14.203125 45.082031 14.203125 45.117188 14.167969 C 45.148438 14.140625 45.285156 14.144531 45.304688 14.175781 C 45.328125 14.21875 45.292969 14.3125 45.246094 14.3125 C 45.226562 14.3125 45.1875 14.289062 45.15625 14.261719 Z M 45.4375 14.28125 C 45.425781 14.261719 45.429688 14.257812 45.445312 14.269531 C 45.464844 14.277344 45.484375 14.273438 45.492188 14.257812 C 45.519531 14.21875 45.550781 14.226562 45.550781 14.273438 C 45.550781 14.320312 45.464844 14.328125 45.4375 14.28125 Z M 13.75 14.078125 C 13.757812 14.070312 13.78125 14.066406 13.800781 14.074219 C 13.824219 14.085938 13.816406 14.089844 13.785156 14.09375 C 13.757812 14.09375 13.742188 14.085938 13.75 14.078125 Z M 19.21875 13.300781 C 19.21875 13.285156 19.222656 13.273438 19.230469 13.273438 C 19.238281 13.273438 19.25 13.285156 19.257812 13.300781 C 19.269531 13.316406 19.261719 13.328125 19.246094 13.328125 C 19.230469 13.328125 19.21875 13.316406 19.21875 13.300781 Z M 19.851562 13.304688 C 19.804688 13.273438 19.816406 13.226562 19.863281 13.238281 C 19.894531 13.246094 19.914062 13.234375 19.917969 13.207031 C 19.921875 13.183594 19.925781 13.144531 19.925781 13.125 C 19.929688 13.101562 19.953125 13.082031 19.980469 13.078125 C 20.007812 13.078125 20.039062 13.074219 20.050781 13.070312 C 20.0625 13.066406 20.109375 13.054688 20.152344 13.042969 C 20.253906 13.015625 20.304688 12.976562 20.285156 12.941406 C 20.277344 12.929688 20.296875 12.917969 20.324219 12.917969 C 20.355469 12.917969 20.386719 12.933594 20.390625 12.953125 C 20.402344 12.976562 20.414062 12.976562 20.429688 12.957031 C 20.46875 12.90625 20.550781 12.890625 20.59375 12.925781 C 20.628906 12.953125 20.632812 12.953125 20.613281 12.921875 C 20.597656 12.890625 20.601562 12.886719 20.636719 12.898438 C 20.664062 12.910156 20.703125 12.917969 20.722656 12.917969 C 20.742188 12.917969 20.765625 12.941406 20.777344 12.96875 C 20.785156 13.003906 20.808594 13.015625 20.839844 13.007812 C 20.910156 12.992188 20.902344 12.921875 20.832031 12.9375 C 20.777344 12.945312 20.777344 12.945312 20.832031 12.921875 C 20.859375 12.90625 20.925781 12.894531 20.976562 12.894531 C 21.027344 12.890625 21.144531 12.878906 21.234375 12.863281 C 21.46875 12.824219 22.0625 12.757812 22.335938 12.738281 C 22.460938 12.730469 22.621094 12.71875 22.6875 12.714844 C 22.828125 12.699219 23.105469 12.679688 23.472656 12.65625 C 23.613281 12.648438 23.808594 12.632812 23.90625 12.625 C 24.140625 12.605469 24.507812 12.601562 24.558594 12.621094 C 24.578125 12.628906 24.648438 12.648438 24.710938 12.65625 C 24.777344 12.667969 24.828125 12.6875 24.828125 12.699219 C 24.828125 12.710938 24.796875 12.75 24.761719 12.785156 C 24.707031 12.84375 24.667969 12.855469 24.558594 12.851562 C 24.476562 12.851562 24.425781 12.859375 24.429688 12.878906 C 24.433594 12.890625 24.535156 12.90625 24.648438 12.90625 C 24.828125 12.910156 24.949219 12.945312 24.90625 12.984375 C 24.890625 13 24.53125 13.019531 24.53125 13 C 24.53125 12.992188 24.449219 12.992188 24.347656 12.996094 C 24.246094 13 24.09375 12.992188 24.007812 12.980469 C 23.921875 12.964844 23.847656 12.960938 23.839844 12.96875 C 23.832031 12.972656 23.773438 12.984375 23.710938 12.984375 C 23.648438 12.988281 23.5625 13 23.519531 13.011719 C 23.476562 13.023438 23.429688 13.023438 23.410156 13.003906 C 23.390625 12.988281 23.257812 12.972656 23.113281 12.96875 C 22.9375 12.964844 22.859375 12.953125 22.871094 12.933594 C 22.878906 12.917969 22.867188 12.921875 22.839844 12.941406 C 22.808594 12.96875 22.761719 12.972656 22.683594 12.960938 C 22.613281 12.949219 22.582031 12.953125 22.589844 12.972656 C 22.609375 13.003906 22.605469 13.003906 22.363281 13.011719 C 22.265625 13.011719 22.15625 13.027344 22.125 13.039062 C 22.089844 13.050781 22.0625 13.046875 22.0625 13.035156 C 22.0625 13.023438 22.03125 13.015625 21.996094 13.015625 C 21.957031 13.015625 21.929688 13.023438 21.929688 13.035156 C 21.929688 13.046875 21.910156 13.054688 21.886719 13.054688 C 21.863281 13.054688 21.851562 13.042969 21.859375 13.03125 C 21.875 13 21.597656 13.046875 21.578125 13.078125 C 21.539062 13.132812 21.035156 13.191406 21.035156 13.140625 C 21.035156 13.121094 21.019531 13.109375 21.003906 13.109375 C 20.988281 13.109375 20.984375 13.121094 20.992188 13.136719 C 21.015625 13.175781 20.953125 13.199219 20.914062 13.167969 C 20.886719 13.144531 20.875 13.144531 20.863281 13.171875 C 20.855469 13.195312 20.808594 13.207031 20.738281 13.199219 C 20.675781 13.199219 20.628906 13.207031 20.628906 13.21875 C 20.628906 13.265625 20.488281 13.234375 20.460938 13.183594 C 20.445312 13.15625 20.421875 13.144531 20.410156 13.152344 C 20.394531 13.160156 20.386719 13.179688 20.394531 13.191406 C 20.402344 13.203125 20.390625 13.21875 20.371094 13.230469 C 20.347656 13.238281 20.324219 13.230469 20.316406 13.21875 C 20.304688 13.203125 20.269531 13.207031 20.226562 13.230469 C 20.140625 13.277344 19.882812 13.328125 19.851562 13.304688 Z M 19.460938 13.179688 C 19.460938 13.132812 19.476562 13.125 19.5 13.164062 C 19.511719 13.175781 19.503906 13.195312 19.488281 13.207031 C 19.472656 13.214844 19.460938 13.203125 19.460938 13.179688 Z M 19.5625 13.132812 C 19.578125 13.117188 19.609375 13.109375 19.628906 13.117188 C 19.648438 13.121094 19.636719 13.136719 19.597656 13.144531 C 19.554688 13.15625 19.542969 13.152344 19.5625 13.132812 Z M 28.898438 13.0625 C 28.867188 13.054688 28.839844 13.042969 28.839844 13.03125 C 28.839844 12.996094 28.957031 13.015625 28.96875 13.050781 C 28.972656 13.066406 28.976562 13.082031 28.96875 13.078125 C 28.964844 13.078125 28.933594 13.070312 28.898438 13.0625 Z M 28.335938 13 C 28.414062 12.96875 28.457031 12.96875 28.40625 13 C 28.382812 13.015625 28.347656 13.027344 28.324219 13.027344 C 28.296875 13.023438 28.300781 13.015625 28.335938 13 Z M 28.503906 13.003906 C 28.492188 12.988281 28.511719 12.984375 28.542969 12.992188 C 28.605469 13.007812 28.613281 13.027344 28.554688 13.027344 C 28.535156 13.027344 28.511719 13.015625 28.503906 13.003906 Z M 25.011719 12.941406 C 24.96875 12.898438 24.988281 12.894531 25.324219 12.894531 C 25.519531 12.890625 25.707031 12.886719 25.742188 12.878906 C 25.777344 12.871094 25.808594 12.878906 25.816406 12.890625 C 25.824219 12.902344 25.867188 12.910156 25.914062 12.90625 C 26.035156 12.898438 26.039062 12.9375 25.914062 12.949219 C 25.855469 12.957031 25.8125 12.949219 25.820312 12.9375 C 25.84375 12.902344 25.800781 12.917969 25.757812 12.960938 C 25.714844 13.007812 25.597656 13.015625 25.574219 12.972656 C 25.5625 12.953125 25.539062 12.957031 25.503906 12.972656 C 25.445312 13.007812 25.386719 12.984375 25.414062 12.941406 C 25.425781 12.917969 25.417969 12.917969 25.394531 12.933594 C 25.375 12.945312 25.289062 12.964844 25.207031 12.972656 C 25.089844 12.984375 25.046875 12.976562 25.011719 12.941406 Z M 27.1875 12.972656 C 27.1875 12.957031 27.191406 12.945312 27.199219 12.945312 C 27.203125 12.945312 27.21875 12.957031 27.226562 12.972656 C 27.234375 12.988281 27.230469 13 27.214844 13 C 27.199219 13 27.1875 12.988281 27.1875 12.972656 Z M 26.101562 12.917969 C 26.078125 12.902344 26.074219 12.890625 26.09375 12.890625 C 26.109375 12.890625 26.132812 12.902344 26.140625 12.917969 C 26.164062 12.953125 26.152344 12.953125 26.101562 12.917969 Z M 36.6875 12.914062 C 36.703125 12.890625 36.597656 12.863281 36.578125 12.886719 C 36.546875 12.914062 36.429688 12.921875 36.429688 12.894531 C 36.429688 12.875 36.351562 12.871094 36.21875 12.882812 C 36.054688 12.894531 35.988281 12.886719 35.914062 12.851562 C 35.859375 12.828125 35.839844 12.8125 35.863281 12.820312 C 35.890625 12.828125 35.914062 12.824219 35.917969 12.808594 C 35.921875 12.796875 35.945312 12.78125 35.96875 12.777344 C 35.988281 12.773438 36.015625 12.753906 36.027344 12.742188 C 36.039062 12.726562 36.046875 12.738281 36.046875 12.773438 C 36.046875 12.828125 36.050781 12.832031 36.121094 12.792969 C 36.191406 12.757812 36.203125 12.757812 36.234375 12.800781 C 36.269531 12.847656 36.273438 12.847656 36.257812 12.800781 C 36.242188 12.765625 36.253906 12.753906 36.304688 12.753906 C 36.339844 12.753906 36.382812 12.777344 36.398438 12.800781 C 36.414062 12.828125 36.425781 12.835938 36.425781 12.816406 C 36.429688 12.78125 36.507812 12.765625 36.507812 12.800781 C 36.507812 12.8125 36.601562 12.820312 36.714844 12.820312 C 36.828125 12.820312 36.925781 12.828125 36.933594 12.839844 C 36.941406 12.855469 36.972656 12.863281 37.003906 12.863281 C 37.050781 12.863281 37.054688 12.871094 37.027344 12.898438 C 36.996094 12.933594 36.667969 12.949219 36.6875 12.914062 Z M 37.132812 12.914062 C 37.132812 12.902344 37.140625 12.890625 37.152344 12.890625 C 37.164062 12.886719 37.210938 12.882812 37.261719 12.875 C 37.367188 12.863281 37.40625 12.910156 37.300781 12.929688 C 37.199219 12.945312 37.132812 12.941406 37.132812 12.914062 Z M 35.179688 12.824219 C 35.179688 12.808594 35.136719 12.796875 35.078125 12.796875 C 35.023438 12.796875 34.96875 12.808594 34.957031 12.824219 C 34.945312 12.839844 34.9375 12.839844 34.9375 12.824219 C 34.9375 12.789062 34.773438 12.78125 34.773438 12.816406 C 34.773438 12.828125 34.761719 12.832031 34.75 12.824219 C 34.722656 12.808594 34.484375 12.78125 34.234375 12.769531 C 34.152344 12.761719 34.082031 12.757812 34.082031 12.753906 C 34.082031 12.734375 33.726562 12.734375 33.703125 12.753906 C 33.664062 12.785156 33.390625 12.808594 33.390625 12.78125 C 33.390625 12.765625 33.375 12.753906 33.351562 12.753906 C 33.328125 12.753906 33.3125 12.765625 33.3125 12.78125 C 33.3125 12.796875 33.121094 12.800781 32.804688 12.792969 C 32.523438 12.785156 32.265625 12.78125 32.230469 12.78125 C 32.195312 12.78125 32.125 12.769531 32.074219 12.757812 C 32.019531 12.742188 31.984375 12.742188 31.984375 12.757812 C 31.984375 12.78125 31.886719 12.777344 31.863281 12.75 C 31.855469 12.742188 31.730469 12.742188 31.589844 12.746094 C 31.414062 12.753906 31.316406 12.746094 31.289062 12.726562 C 31.261719 12.699219 31.25 12.699219 31.25 12.730469 C 31.25 12.753906 31.242188 12.757812 31.230469 12.738281 C 31.21875 12.722656 31.0625 12.710938 30.84375 12.707031 C 30.644531 12.707031 30.035156 12.695312 29.488281 12.6875 C 28.945312 12.679688 28.246094 12.671875 27.9375 12.667969 C 27.628906 12.667969 27.375 12.65625 27.375 12.648438 C 27.375 12.640625 27.308594 12.632812 27.226562 12.632812 C 27.144531 12.632812 27.078125 12.640625 27.078125 12.652344 C 27.078125 12.664062 27.066406 12.671875 27.050781 12.671875 C 27.03125 12.671875 27.027344 12.660156 27.035156 12.644531 C 27.046875 12.628906 27.035156 12.617188 27.011719 12.617188 C 26.988281 12.617188 26.96875 12.605469 26.96875 12.589844 C 26.96875 12.574219 26.957031 12.5625 26.941406 12.5625 C 26.925781 12.5625 26.917969 12.574219 26.929688 12.589844 C 26.9375 12.605469 26.910156 12.617188 26.855469 12.617188 C 26.789062 12.617188 26.777344 12.609375 26.804688 12.589844 C 26.835938 12.570312 26.835938 12.5625 26.8125 12.5625 C 26.785156 12.5625 26.785156 12.554688 26.816406 12.523438 C 26.839844 12.5 26.882812 12.480469 26.914062 12.480469 C 26.945312 12.480469 26.96875 12.46875 26.96875 12.453125 C 26.96875 12.433594 26.992188 12.429688 27.027344 12.441406 C 27.066406 12.453125 27.078125 12.449219 27.066406 12.429688 C 27.054688 12.414062 27.054688 12.398438 27.0625 12.398438 C 27.070312 12.398438 27.089844 12.425781 27.101562 12.453125 L 27.121094 12.511719 L 27.191406 12.453125 C 27.242188 12.414062 27.269531 12.40625 27.28125 12.429688 C 27.296875 12.449219 27.308594 12.449219 27.324219 12.421875 C 27.34375 12.390625 27.527344 12.386719 28.316406 12.386719 C 28.851562 12.386719 29.507812 12.394531 29.773438 12.40625 C 30.042969 12.414062 30.488281 12.429688 30.761719 12.4375 C 31.757812 12.46875 32.015625 12.480469 32.039062 12.496094 C 32.089844 12.527344 32.304688 12.554688 32.339844 12.53125 C 32.359375 12.519531 32.382812 12.523438 32.394531 12.542969 C 32.410156 12.566406 32.421875 12.566406 32.445312 12.535156 C 32.457031 12.511719 32.46875 12.507812 32.46875 12.523438 C 32.472656 12.539062 32.636719 12.546875 32.925781 12.546875 C 33.378906 12.542969 34.152344 12.585938 34.152344 12.617188 C 34.152344 12.625 34.246094 12.628906 34.359375 12.628906 C 34.558594 12.625 35.015625 12.664062 35.097656 12.6875 C 35.125 12.699219 35.125 12.707031 35.097656 12.742188 C 35.070312 12.773438 35.070312 12.78125 35.101562 12.769531 C 35.125 12.765625 35.175781 12.75 35.214844 12.742188 C 35.261719 12.730469 35.285156 12.710938 35.277344 12.691406 C 35.265625 12.671875 35.273438 12.679688 35.292969 12.703125 C 35.316406 12.734375 35.351562 12.738281 35.472656 12.722656 C 35.558594 12.710938 35.644531 12.714844 35.671875 12.730469 C 35.699219 12.742188 35.753906 12.757812 35.796875 12.757812 C 35.867188 12.761719 35.867188 12.761719 35.808594 12.773438 C 35.757812 12.785156 35.75 12.792969 35.78125 12.8125 C 35.820312 12.835938 35.785156 12.839844 35.40625 12.847656 C 35.273438 12.847656 35.179688 12.839844 35.179688 12.824219 Z M 27.304688 12.578125 C 27.296875 12.554688 27.277344 12.542969 27.265625 12.550781 C 27.226562 12.574219 27.234375 12.617188 27.28125 12.617188 C 27.304688 12.617188 27.3125 12.601562 27.304688 12.578125 Z M 25.722656 12.671875 C 25.75 12.617188 25.75 12.613281 25.710938 12.625 C 25.671875 12.640625 25.671875 12.636719 25.699219 12.582031 L 25.730469 12.523438 L 25.757812 12.582031 C 25.789062 12.652344 25.84375 12.664062 25.867188 12.605469 C 25.875 12.582031 25.875 12.5625 25.863281 12.5625 C 25.851562 12.5625 25.839844 12.542969 25.839844 12.519531 C 25.839844 12.488281 25.863281 12.484375 25.972656 12.496094 C 26.058594 12.507812 26.101562 12.503906 26.101562 12.484375 C 26.101562 12.46875 26.144531 12.453125 26.199219 12.453125 C 26.261719 12.453125 26.289062 12.464844 26.277344 12.484375 C 26.261719 12.503906 26.273438 12.503906 26.316406 12.484375 C 26.363281 12.457031 26.367188 12.460938 26.355469 12.492188 C 26.347656 12.515625 26.328125 12.535156 26.316406 12.535156 C 26.300781 12.535156 26.292969 12.546875 26.292969 12.5625 C 26.292969 12.621094 26.339844 12.585938 26.371094 12.507812 C 26.410156 12.417969 26.410156 12.414062 26.480469 12.453125 C 26.515625 12.472656 26.523438 12.5 26.515625 12.550781 C 26.507812 12.589844 26.511719 12.617188 26.523438 12.613281 C 26.539062 12.605469 26.554688 12.617188 26.5625 12.628906 C 26.570312 12.644531 26.507812 12.660156 26.40625 12.660156 C 26.25 12.667969 26.230469 12.660156 26.203125 12.601562 C 26.175781 12.535156 26.074219 12.507812 26.074219 12.5625 C 26.074219 12.582031 26.085938 12.585938 26.101562 12.578125 C 26.117188 12.566406 26.121094 12.578125 26.113281 12.601562 C 26.105469 12.625 26.078125 12.632812 26.054688 12.625 C 26.027344 12.613281 26.019531 12.617188 26.03125 12.640625 C 26.050781 12.675781 25.960938 12.703125 25.859375 12.691406 C 25.820312 12.6875 25.769531 12.691406 25.742188 12.707031 C 25.695312 12.726562 25.695312 12.726562 25.722656 12.671875 Z M 26.464844 12.566406 C 26.472656 12.554688 26.460938 12.542969 26.441406 12.542969 C 26.417969 12.542969 26.410156 12.554688 26.417969 12.566406 C 26.425781 12.578125 26.433594 12.589844 26.441406 12.589844 C 26.445312 12.589844 26.457031 12.578125 26.464844 12.566406 Z M 25.359375 12.675781 C 25.351562 12.660156 25.367188 12.644531 25.398438 12.636719 C 25.433594 12.628906 25.445312 12.609375 25.433594 12.578125 C 25.425781 12.554688 25.429688 12.535156 25.445312 12.535156 C 25.480469 12.535156 25.476562 12.625 25.433594 12.664062 C 25.394531 12.707031 25.378906 12.707031 25.359375 12.675781 Z M 25.523438 12.597656 C 25.53125 12.578125 25.542969 12.5625 25.546875 12.5625 C 25.550781 12.5625 25.558594 12.578125 25.566406 12.597656 C 25.574219 12.621094 25.566406 12.636719 25.546875 12.636719 C 25.527344 12.636719 25.515625 12.621094 25.523438 12.597656 Z M 25.628906 12.523438 C 25.65625 12.5 25.707031 12.480469 25.742188 12.480469 C 25.804688 12.480469 25.847656 12.523438 25.804688 12.546875 C 25.792969 12.554688 25.777344 12.550781 25.769531 12.53125 C 25.761719 12.507812 25.746094 12.507812 25.703125 12.53125 C 25.621094 12.578125 25.566406 12.570312 25.628906 12.523438 Z M 25.269531 12.519531 C 25.277344 12.511719 25.300781 12.507812 25.320312 12.515625 C 25.34375 12.527344 25.335938 12.53125 25.304688 12.535156 C 25.277344 12.535156 25.261719 12.527344 25.269531 12.519531 Z M 26.699219 12.507812 C 26.664062 12.484375 26.664062 12.480469 26.703125 12.480469 C 26.730469 12.480469 26.753906 12.492188 26.753906 12.507812 C 26.753906 12.542969 26.75 12.542969 26.699219 12.507812 Z M 26.550781 12.464844 C 26.539062 12.433594 26.546875 12.429688 26.589844 12.453125 C 26.652344 12.488281 26.660156 12.507812 26.605469 12.507812 C 26.585938 12.507812 26.5625 12.488281 26.550781 12.464844 Z M 26.550781 12.464844 "/>
</g>
</svg>
