<?xml version="1.0" standalone="yes"?>
<svg xmlns="http://www.w3.org/2000/svg" width="512" height="512">
<path style="fill:none; stroke:none;" d="M0 0L0 234L1 234C1.06015 143.174 72.7504 57.4208 152 21.6944C176.983 10.4317 206.34 1.01822 234 1L212 0L165 0L0 0z"/>
<path style="fill:#010101; stroke:none;" d="M234 0.424377C187.971 6.47089 146.604 19.3708 108 46.0255C81.9464 64.0145 59.5176 87.7135 42 114C-40.9015 238.4 3.94199 411.803 135 482.691C183.355 508.846 239.873 517.009 294 509.718C328.421 505.081 361.389 492.262 391 474.399C416.194 459.2 438.439 438.918 456.8 416C543.866 307.328 525.125 143.072 417 55.8048C390.141 34.1272 359.116 18.5033 326 9C297.304 0.765106 263.787 -3.48853 234 0.424377z"/>
<path style="fill:#ffffff; stroke:none;" d="M278 0L278 1C368.826 1.05988 454.579 72.7506 490.306 152C501.568 176.983 510.982 206.34 511 234L512 234L512 0L278 0M241 17.4244C190.255 24.0871 144.183 38.0062 104 71.4352C80.0309 91.3755 58.9412 116.096 44.7562 144C-9.02624 249.796 19.5575 383.314 119 451.975C144.526 469.599 172.84 481.967 203 489.116C231.079 495.771 260.496 496.557 289 492.718C401.263 477.595 490.006 380.129 494.961 267C499.996 152.011 419.33 47.35 307 22.5756C286.127 17.972 262.353 14.6207 241 17.4244z"/>
<path style="fill:#010101; stroke:none;" d="M248 57.4244C197.329 64.0774 152.554 77.7855 115.17 115.17C98.1858 132.154 85.0002 152.35 74.7809 174C37.6503 252.662 61.0327 353.406 128 408.536C171.959 444.725 228.841 460.283 285 452.718C381.796 439.678 457.375 350.534 454.985 253C452.82 164.615 392.134 85.778 306 63.6296C287.954 58.9893 266.646 54.9762 248 57.4244z"/>
<path style="fill:#ffffff; stroke:none;" d="M250 182.425C219.546 186.571 193.314 205.335 184.921 236C172.208 282.444 210.431 335.762 261 329.715C291.834 326.027 318.62 306.904 327.079 276C339.889 229.203 300.904 175.496 250 182.425M0 278L0 512L234 512L234 511C146.766 510.942 59.5029 442.648 24.3086 366C15.5755 346.981 9.02703 327.469 4.66127 307C2.7424 298.003 3.48414 286.3 0 278M511 278C510.932 302.564 503.041 328.399 494 351C460.551 434.618 371.984 510.741 278 511L278 512L512 512L512 347L512 300L511 278z"/>
</svg>
