<?xml version="1.0" standalone="yes"?>
<svg xmlns="http://www.w3.org/2000/svg" width="64" height="64">
<path style="fill:#ffffff; stroke:none;" d="M0 0L0 24L1 24C3.68011 12.8206 12.8206 3.68011 24 1L0 0z"/>
<path style="fill:#010101; stroke:none;" d="M24 0.517746C-16.9494 9.26739 -1.03505 72.2502 40 63.4823C80.9494 54.7326 65.035 -8.2502 24 0.517746z"/>
<path style="fill:#ffffff; stroke:none;" d="M40 0L40 1C51.1794 3.68011 60.3199 12.8206 63 24L64 24L64 0L40 0M25 17L34.9444 32L25 47C43.4049 41.834 43.4049 22.166 25 17M0 40L0 64L24 64L24 63C10.9456 59.8704 6.51238 50.2851 0 40M63 40C60.3199 51.1794 51.1794 60.3199 40 63L40 64L64 64L63 40z"/>
</svg>
